<?xml version="1.0" encoding="UTF-8"?>
<svg version="1.1" xmlns="http://www.w3.org/2000/svg" width="261" height="126">
<path d="M0 0 C86.13 0 172.26 0 261 0 C261 41.58 261 83.16 261 126 C174.87 126 88.74 126 0 126 C0 84.42 0 42.84 0 0 Z " fill="#FCFDFD" transform="translate(0,0)"/>
<path d="M0 0 C0.15855469 0.66386719 0.31710938 1.32773438 0.48046875 2.01171875 C2.19264413 8.49149851 3.89960471 12.39148961 9.75 16.11328125 C20.49981841 22.07336202 33.88520763 22.15215897 45.890625 22.16796875 C46.79770203 22.17129715 47.70477905 22.17462555 48.63934326 22.17805481 C50.54520161 22.18308057 52.45106863 22.1854645 54.35693359 22.18530273 C57.22899316 22.18748405 60.1006646 22.20567263 62.97265625 22.22460938 C72.21436567 22.25199399 81.10151894 22.03411737 90.22607422 20.44311523 C93.8754294 19.86015628 97.31453391 19.85258136 101 20 C98.47283283 22.52716717 96.89352643 22.58537129 93.3984375 23.21875 C92.26792969 23.42886719 91.13742188 23.63898438 89.97265625 23.85546875 C88.19181641 24.17451172 88.19181641 24.17451172 86.375 24.5 C84.04909731 24.92499883 81.72356603 25.35203601 79.3984375 25.78125 C78.27945068 25.98758057 77.16046387 26.19391113 76.00756836 26.40649414 C73.66255498 26.86925309 71.3914158 27.39400027 69.08984375 28.02734375 C63.55254015 29.47800649 57.85098575 30.07427534 52.18334961 30.80493164 C50.20162776 31.06067678 48.22092213 31.32425628 46.24023438 31.58789062 C34.10872849 33.17980769 22.22627493 34.18672162 9.99267578 34.18530273 C7.8712193 34.18750392 5.75027239 34.20577779 3.62890625 34.22460938 C-14.92428579 34.30299646 -14.92428579 34.30299646 -23 28 C-25 26 -25 26 -25.29296875 24.15234375 C-24.98559726 17.69754255 -22.51733857 14.5113298 -17.82421875 10.21875 C-4.81690141 0 -4.81690141 0 0 0 Z " fill="#080A07" transform="translate(40,71)"/>
<path d="M0 0 C1.53527344 -0.01401855 1.53527344 -0.01401855 3.1015625 -0.02832031 C12.70178158 0.01251832 20.51921488 1.14421488 27.625 8.25 C27.625 14.74508739 25.02376667 18.6210175 20.625 23.25 C9.90520566 33.25 9.90520566 33.25 6.625 33.25 C6.5734375 32.60933594 6.521875 31.96867187 6.46875 31.30859375 C5.62293361 24.85924377 3.94194461 21.6227769 -1.2265625 17.6484375 C-8.59777702 12.85044696 -16.66690824 10.93411563 -25.37109375 10.984375 C-26.12229996 10.98246155 -26.87350616 10.9805481 -27.6474762 10.97857666 C-29.23333065 10.97722227 -30.81919647 10.98086631 -32.4050293 10.98925781 C-34.77484593 10.99983199 -37.14388064 10.98940824 -39.51367188 10.9765625 C-48.4228357 10.96958814 -57.02880546 11.51380327 -65.84399414 12.82128906 C-69.39130859 13.25198008 -72.80548959 13.3221171 -76.375 13.25 C-73.56249839 11.37499893 -72.09391127 10.79985661 -68.89453125 10.1015625 C-67.98952881 9.90280518 -67.08452637 9.70404785 -66.15209961 9.49926758 C-64.6846228 9.19025513 -64.6846228 9.19025513 -63.1875 8.875 C-62.17244385 8.65803467 -61.1573877 8.44106934 -60.11157227 8.2175293 C-49.76451194 6.04935453 -39.36154364 4.2847357 -28.91748047 2.65673828 C-26.80615281 2.31897451 -24.70088762 1.94356992 -22.59765625 1.55859375 C-15.06626767 0.25315306 -7.62638821 0.04812324 0 0 Z " fill="#090C08" transform="translate(219.375,20.75)"/>
<path d="M0 0 C1.47146484 -0.0299707 1.47146484 -0.0299707 2.97265625 -0.06054688 C10.29177396 -0.0556082 13.64894538 1.19318236 19 6.1875 C20.69572301 9.57894602 20.76720449 12.77481722 20.125 16.4375 C18.03643102 20.39086271 15.9050105 23.07148713 12.125 25.4375 C8.52222571 26.04955004 4.89929158 25.90116832 1.25 25.875 C0.26902344 25.89498047 -0.71195313 25.91496094 -1.72265625 25.93554688 C-7.76567979 25.93146926 -11.27866579 25.45558571 -15.875 21.4375 C-18.24802167 18.51077328 -18.83466626 16.75440796 -19.3125 13 C-18.70533197 8.05591748 -16.7242739 5.10085892 -13.04638672 1.79272461 C-9.0642346 -0.69265052 -4.56907191 -0.03276388 0 0 Z " fill="#111111" transform="translate(150.875,46.5625)"/>
<path d="M0 0 C2.625 -0.5625 2.625 -0.5625 6 0 C7.79182645 2.05533034 9.12852401 4.19350277 10.5078125 6.54296875 C12.13644043 9.22466238 14.00138092 11.58535936 16 14 C16.56589844 13.07316406 17.13179687 12.14632812 17.71484375 11.19140625 C18.45565576 9.98172588 19.19654518 8.77209291 19.9375 7.5625 C20.31068359 6.95083984 20.68386719 6.33917969 21.06835938 5.70898438 C23.88671875 1.11328125 23.88671875 1.11328125 25 0 C26.99958364 -0.04080783 29.00045254 -0.04254356 31 0 C34.89814866 7.65778442 38 16.32390934 38 25 C35.36 25 32.72 25 30 25 C29.49663233 23.37604003 28.99741024 21.75079459 28.5 20.125 C28.2215625 19.22007813 27.943125 18.31515625 27.65625 17.3828125 C27 15 27 15 27 13 C26.34 13 25.68 13 25 13 C24.7525 13.680625 24.505 14.36125 24.25 15.0625 C22.75802092 18.56865083 20.93164489 21.71620368 19 25 C16.23828125 25.3046875 16.23828125 25.3046875 13 25 C10.91796875 22.8828125 10.91796875 22.8828125 9.1875 20.125 C8.31158203 18.76761719 8.31158203 18.76761719 7.41796875 17.3828125 C6.56471322 15.94896712 5.74618464 14.49236928 5 13 C3.19682779 16.96697886 2.50797009 20.6822542 2 25 C-0.97 25 -3.94 25 -7 25 C-6.19611005 16.35818304 -3.31037022 7.98645371 0 0 Z " fill="#101010" transform="translate(183,47)"/>
<path d="M0 0 C0.15855469 0.66386719 0.31710938 1.32773438 0.48046875 2.01171875 C2.19264413 8.49149851 3.89960471 12.39148961 9.75 16.11328125 C20.49981841 22.07336202 33.88520763 22.15215897 45.890625 22.16796875 C46.79770203 22.17129715 47.70477905 22.17462555 48.63934326 22.17805481 C50.54520161 22.18308057 52.45106863 22.1854645 54.35693359 22.18530273 C57.22899316 22.18748405 60.1006646 22.20567263 62.97265625 22.22460938 C72.21436567 22.25199399 81.10151894 22.03411737 90.22607422 20.44311523 C93.8754294 19.86015628 97.31453391 19.85258136 101 20 C98.31943745 22.68056255 95.53836901 22.95739923 91.9375 23.625 C91.22432617 23.7583374 90.51115234 23.8916748 89.77636719 24.02905273 C84.00021463 25.01468611 78.45265368 25.14950201 72.60961914 25.01220703 C67.27864481 24.91548648 62.16313694 25.3567165 56.875 26 C48.6461423 26.94053517 40.44100819 27.24963052 32.16265869 27.29956055 C30.18762195 27.31210234 28.21268781 27.33844269 26.23779297 27.36523438 C14.89145349 27.35939102 2.7568147 26.94222728 -6 19 C-7.73320813 15.53358374 -6.75657644 11.70594225 -6 8 C-4.375 5.0625 -4.375 5.0625 -3 3 C-3.33 2.34 -3.66 1.68 -4 1 C-2 0 -2 0 0 0 Z " fill="#4A8B25" transform="translate(40,71)"/>
<path d="M0 0 C3.00095974 2.59542464 4.24228671 4.12233385 4.5625 8.125 C3.9960224 16.90540281 3.9960224 16.90540281 2.3125 21 C-0.3125 22.5625 -0.3125 22.5625 -2.6875 23 C-2.7390625 22.35933594 -2.790625 21.71867187 -2.84375 21.05859375 C-3.68956639 14.60924377 -5.37055539 11.3727769 -10.5390625 7.3984375 C-17.91027702 2.60044696 -25.97940824 0.68411563 -34.68359375 0.734375 C-35.43479996 0.73246155 -36.18600616 0.7305481 -36.9599762 0.72857666 C-38.54583065 0.72722227 -40.13169647 0.73086631 -41.7175293 0.73925781 C-44.08734593 0.74983199 -46.45638064 0.73940824 -48.82617188 0.7265625 C-57.7353357 0.71958814 -66.34130546 1.26380327 -75.15649414 2.57128906 C-78.70380859 3.00198008 -82.11798959 3.0721171 -85.6875 3 C-81.28595004 0.06563336 -76.56260902 -0.57293168 -71.4375 -1.6875 C-69.90029297 -2.04424805 -69.90029297 -2.04424805 -68.33203125 -2.40820312 C-62.68004915 -3.64843858 -58.43804316 -4.02566168 -52.6875 -3 C-49.89222142 -3.13902107 -47.14461255 -3.54524778 -44.375 -3.9375 C-30.36837962 -5.67325769 -12.5727104 -7.83910001 0 0 Z " fill="#498924" transform="translate(228.6875,31)"/>
<path d="M0 0 C3.55167007 0.33014025 4.71023715 0.90141133 7.05078125 3.6328125 C8.90967646 6.79004915 10.4962939 10.00098394 12.0625 13.3125 C13.19821652 15.3598116 14.34336626 17.40193246 15.5 19.4375 C18.0625 24.05401436 18.0625 24.05401436 18.0625 26.3125 C15.4225 26.3125 12.7825 26.3125 10.0625 26.3125 C9.4025 24.9925 8.7425 23.6725 8.0625 22.3125 C2.4525 22.3125 -3.1575 22.3125 -8.9375 22.3125 C-9.2675 23.6325 -9.5975 24.9525 -9.9375 26.3125 C-12.9075 26.3125 -15.8775 26.3125 -18.9375 26.3125 C-16.66688231 21.61566392 -14.35316478 16.94625575 -11.96289062 12.30908203 C-11.10023374 10.62936583 -10.25857003 8.93889168 -9.421875 7.24609375 C-6.97381431 2.86350235 -5.12618859 0.70359451 0 0 Z " fill="#0E0E0E" transform="translate(65.9375,45.6875)"/>
<path d="M0 0 C0.75925781 -0.00708984 1.51851562 -0.01417969 2.30078125 -0.02148438 C5.59819144 0.01605182 8.07499882 0.20941824 11.00390625 1.78125 C12.5 3.4375 12.5 3.4375 12.9375 6.375 C12.43139436 9.91773947 12.16932701 11.06084022 9.5 13.4375 C6.32856952 14.05065627 3.2204982 13.99492344 0 13.9375 C-0.86753906 13.95296875 -1.73507813 13.9684375 -2.62890625 13.984375 C-8.94030085 13.94535556 -8.94030085 13.94535556 -11.56640625 11.5625 C-12.74284613 8.88474562 -13.00646327 7.33157582 -12.5 4.4375 C-9.172403 -0.29759233 -5.36166201 -0.14109637 0 0 Z " fill="#F1F1F1" transform="translate(151.5,52.5625)"/>
<path d="M0 0 C2.91064374 -0.28674774 5.15706664 -0.48597718 8 0 C10.17112665 1.98493992 11.43351361 3.4243925 13 5.8125 C13.4129834 6.39547852 13.8259668 6.97845703 14.25146484 7.57910156 C15.10102321 8.7812022 15.94007697 9.99079441 16.76855469 11.20751953 C17.94920669 12.92606573 19.1686176 14.60534163 20.4140625 16.27734375 C26 23.78776502 26 23.78776502 26 25 C22.78818242 25.57353885 21.08389917 25.8357737 18 25 C14.77453791 22.08382879 12.47301239 18.55726222 10 15 C9.18310477 13.91860201 8.36002326 12.84185318 7.53125 11.76953125 C1.17029262 3.51087787 1.17029262 3.51087787 0 0 Z " fill="#2190CF" transform="translate(89,47)"/>
<path d="M0 0 C2.31 0 4.62 0 7 0 C7 8.25 7 16.5 7 25 C4.69 25 2.38 25 0 25 C0 16.75 0 8.5 0 0 Z " fill="#030403" transform="translate(120,47)"/>
<path d="M0 0 C-2.68067146 2.68067146 -5.46158595 2.9570266 -9.0625 3.625 C-9.76842285 3.7576123 -10.4743457 3.89022461 -11.20166016 4.02685547 C-17.89745207 5.17306175 -24.42059705 5.1777192 -31.19140625 5.0390625 C-34.16078378 5.00860735 -36.88137234 5.11879886 -39.8125 5.5 C-43.24098962 5.87436336 -46.60239636 6.06409478 -50.05078125 6.06640625 C-50.96432373 6.06769531 -51.87786621 6.06898437 -52.8190918 6.0703125 C-56.87952667 6.05900702 -60.93972814 6.03841596 -65 6 C-64.67 5.01 -64.34 4.02 -64 3 C-62.80101074 2.98018066 -61.60202148 2.96036133 -60.36669922 2.93994141 C-55.85251366 2.86298045 -51.3386132 2.77441525 -46.82470703 2.68261719 C-44.88335868 2.64469646 -42.94194883 2.60978463 -41.00048828 2.578125 C-30.80372432 2.40984421 -20.8412022 2.1477423 -10.76953125 0.42773438 C-7.12406124 -0.1352825 -3.67915635 -0.14716625 0 0 Z " fill="#5F9441" transform="translate(141,91)"/>
<path d="M0 0 C0.99 0 1.98 0 3 0 C3 2.31 3 4.62 3 7 C4.92309422 6.96044102 4.92309422 6.96044102 7 6 C8.78379415 3.01647106 8.78379415 3.01647106 10 0 C11.32 0 12.64 0 14 0 C17 6.625 17 6.625 17 10 C14.69 9.34 12.38 8.68 10 8 C10 8.99 10 9.98 10 11 C6.7 11 3.4 11 0 11 C0 7.37 0 3.74 0 0 Z " fill="#7FBDE3" transform="translate(120,77)"/>
<path d="M0 0 C-0.99 0 -1.98 0 -3 0 C-3 0.66 -3 1.32 -3 2 C5.91 2 14.82 2 24 2 C24 2.33 24 2.66 24 3 C22.71706055 3.029729 22.71706055 3.029729 21.40820312 3.06005859 C0.68206315 3.42298207 0.68206315 3.42298207 -19.90625 5.59765625 C-23.29978569 6.03898728 -26.58168498 6.06474081 -30 6 C-25.55553403 3.03702269 -20.73966522 2.42392813 -15.5625 1.3125 C-14.51255859 1.07466797 -13.46261719 0.83683594 -12.38085938 0.59179688 C-10.86395508 0.26211914 -10.86395508 0.26211914 -9.31640625 -0.07421875 C-7.93110718 -0.37718872 -7.93110718 -0.37718872 -6.51782227 -0.6862793 C-3.99504589 -1.00061728 -2.39007173 -0.79948966 0 0 Z " fill="#739062" transform="translate(173,28)"/>
<path d="M0 0 C2.5 0.25 2.5 0.25 4.5 2.25 C4.6875 5.8125 4.6875 5.8125 4.5 9.25 C3.5 10.25 3.5 10.25 0 10.375 C-3.5 10.25 -3.5 10.25 -4.5 9.25 C-4.6875 5.8125 -4.6875 5.8125 -4.5 2.25 C-2.5 0.25 -2.5 0.25 0 0 Z " fill="#4DA6D7" transform="translate(195.5,76.75)"/>
<path d="M0 0 C2.5 0.25 2.5 0.25 4.5 2.25 C4.625 5.875 4.625 5.875 4.5 9.25 C1.76752652 10.61623674 -0.48198902 10.378426 -3.5 10.25 C-4.5 9.25 -4.5 9.25 -4.6875 5.8125 C-4.47268534 1.73102138 -4.19787247 0.41978725 0 0 Z " fill="#3C9ED4" transform="translate(153.5,76.75)"/>
<path d="M0 0 C3.375 -0.125 3.375 -0.125 7 0 C9 2 9 2 9 5 C8.34 5 7.68 5 7 5 C7.66 6.65 8.32 8.3 9 10 C7 9 5 8 3 7 C3 7.99 3 8.98 3 10 C2.01 10 1.02 10 0 10 C0 6.7 0 3.4 0 0 Z " fill="#4FA7D8" transform="translate(160,77)"/>
<path d="M0 0 C2.31 0 4.62 0 7 0 C8 5 8 5 9 10 C6 10 6 10 4.3125 8.5 C3.879375 8.005 3.44625 7.51 3 7 C3 7.99 3 8.98 3 10 C2.01 10 1.02 10 0 10 C0 6.7 0 3.4 0 0 Z " fill="#4DA6D8" transform="translate(202,77)"/>
<path d="M0 0 C-1.65167557 3.5786304 -3.78286492 6.74820188 -6 10 C-9 9 -9 9 -10.375 6.6875 C-11 4 -11 4 -10.125 1.6875 C-6.83353274 -0.92631224 -4.12573831 -0.27054022 0 0 Z " fill="#2793CF" transform="translate(115,47)"/>
<path d="M0 0 C0.99 0 1.98 0 3 0 C3.50403768 1.29009643 4.00309926 2.58213789 4.5 3.875 C4.7784375 4.59429687 5.056875 5.31359375 5.34375 6.0546875 C6 8 6 8 6 10 C3.69 9.34 1.38 8.68 -1 8 C-1 8.66 -1 9.32 -1 10 C-1.66 10 -2.32 10 -3 10 C-2.25 3.375 -2.25 3.375 0 0 Z " fill="#3098D1" transform="translate(174,77)"/>
<path d="M0 0 C1.98 0 3.96 0 6 0 C8 5.625 8 5.625 8 9 C7.34 9 6.68 9 6 9 C6 8.01 6 7.02 6 6 C4.68 6 3.36 6 2 6 C2 6.99 2 7.98 2 9 C2.99 9.33 3.98 9.66 5 10 C3.35 10 1.7 10 0 10 C0 6.7 0 3.4 0 0 Z " fill="#399CD4" transform="translate(139,77)"/>
<path d="M0 0 C0.99 0.33 1.98 0.66 3 1 C3.625 3.3125 3.625 3.3125 4 6 C3.01 7.485 3.01 7.485 2 9 C0.0546875 9.29296875 0.0546875 9.29296875 -2.125 9.1875 C-4.043125 9.0946875 -4.043125 9.0946875 -6 9 C-4.47291037 5.56404834 -2.40072955 2.88087546 0 0 Z " fill="#2A95D0" transform="translate(95,63)"/>
<path d="M0 0 C1.32 0 2.64 0 4 0 C7 6.625 7 6.625 7 10 C4.69 9.34 2.38 8.68 0 8 C0 8.66 0 9.32 0 10 C-0.66 10 -1.32 10 -2 10 C-1.34 6.7 -0.68 3.4 0 0 Z " fill="#3399D2" transform="translate(130,77)"/>
<path d="M0 0 C-2.77453631 2.77453631 -5.83404883 3.00533215 -9.5625 3.6875 C-10.28179687 3.82196533 -11.00109375 3.95643066 -11.7421875 4.0949707 C-17.08905556 5.01682374 -21.64201506 5.05246133 -27 4 C-27 3.67 -27 3.34 -27 3 C-24.00114586 2.49212954 -21.00121874 1.99353375 -18 1.5 C-16.74123047 1.28537109 -16.74123047 1.28537109 -15.45703125 1.06640625 C-10.22817799 0.21519758 -5.29724973 -0.14714583 0 0 Z " fill="#3A4B33" transform="translate(141,91)"/>
<path d="M0 0 C-2.87456792 0.33747548 -5.74956059 0.67010463 -8.625 1 C-9.43324219 1.09539063 -10.24148437 1.19078125 -11.07421875 1.2890625 C-15.40973739 1.78253617 -19.62737311 2.11320717 -24 2 C-20.62239627 -0.25173582 -18.01777776 -0.8366795 -14.0625 -1.6875 C-12.83660156 -1.95949219 -11.61070312 -2.23148438 -10.34765625 -2.51171875 C-5.61751135 -3.20164654 -3.94596735 -2.6306449 0 0 Z " fill="#14210F" transform="translate(194,27)"/>
<path d="M0 0 C2.72426311 2.35277269 3.8141763 4.62496331 5 8 C2.36 8 -0.28 8 -3 8 C-2.45276317 4.62537285 -1.9451 2.91765 0 0 Z " fill="#CACACA" transform="translate(65,54)"/>
<path d="M0 0 C0.33 0 0.66 0 1 0 C1 3.3 1 6.6 1 10 C1.66 9.67 2.32 9.34 3 9 C3 8.01 3 7.02 3 6 C4.32 6 5.64 6 7 6 C7.5625 7.9375 7.5625 7.9375 8 10 C7 11 7 11 4.49609375 11.09765625 C2.98208984 11.08025391 2.98208984 11.08025391 1.4375 11.0625 C0.42558594 11.05347656 -0.58632812 11.04445313 -1.62890625 11.03515625 C-2.41136719 11.02355469 -3.19382813 11.01195313 -4 11 C-3.67 10.34 -3.34 9.68 -3 9 C-2.34 9.33 -1.68 9.66 -1 10 C-0.67 6.7 -0.34 3.4 0 0 Z " fill="#AAD1EB" transform="translate(138,77)"/>
<path d="M0 0 C0.99 0 1.98 0 3 0 C3 0.66 3 1.32 3 2 C2.34 2 1.68 2 1 2 C0.34 4.64 -0.32 7.28 -1 10 C-1.66 10 -2.32 10 -3 10 C-3.99 7.03 -4.98 4.06 -6 1 C-5.01 1 -4.02 1 -3 1 C-3 1.66 -3 2.32 -3 3 C-2.34 3 -1.68 3 -1 3 C-0.67 2.01 -0.34 1.02 0 0 Z " fill="#399CD3" transform="translate(219,77)"/>
<path d="M0 0 C2.64 0 5.28 0 8 0 C8 0.66 8 1.32 8 2 C7.01 2 6.02 2 5 2 C5 4.64 5 7.28 5 10 C4.34 10 3.68 10 3 10 C3 7.36 3 4.72 3 2 C2.01 2 1.02 2 0 2 C0 1.34 0 0.68 0 0 Z " fill="#359AD3" transform="translate(181,77)"/>
<path d="M0 0 C2.5 0.25 2.5 0.25 4.5 2.25 C4.625 4.875 4.625 4.875 4.5 7.25 C3.84 7.25 3.18 7.25 2.5 7.25 C2.17 5.93 1.84 4.61 1.5 3.25 C-0.44074861 3.52617533 -0.44074861 3.52617533 -2.5 4.25 C-3.16 5.24 -3.82 6.23 -4.5 7.25 C-4.625 4.875 -4.625 4.875 -4.5 2.25 C-2.5 0.25 -2.5 0.25 0 0 Z " fill="#2E97D0" transform="translate(195.5,76.75)"/>
<path d="M0 0 C2.0625 0.4375 2.0625 0.4375 4 1 C4 2.65 4 4.3 4 6 C2.35 6 0.7 6 -1 6 C-1.042721 4.33388095 -1.04063832 2.66617115 -1 1 C-0.67 0.67 -0.34 0.34 0 0 Z " fill="#D6E9F4" transform="translate(152,79)"/>
<path d="M0 0 C0.99 0 1.98 0 3 0 C3 1.98 3 3.96 3 6 C1.68 6 0.36 6 -1 6 C-1.042721 4.33388095 -1.04063832 2.66617115 -1 1 C-0.67 0.67 -0.34 0.34 0 0 Z " fill="#E5F0F7" transform="translate(194,79)"/>
<path d="M0 0 C0.99 0 1.98 0 3 0 C3.66 1.98 4.32 3.96 5 6 C3.35 6.33 1.7 6.66 0 7 C0 5.68 0 4.36 0 3 C0.66 3 1.32 3 2 3 C2 2.34 2 1.68 2 1 C1.34 0.67 0.68 0.34 0 0 Z " fill="#67B2DB" transform="translate(174,77)"/>
<path d="M0 0 C0.99 0.33 1.98 0.66 3 1 C3 3.31 3 5.62 3 8 C1.02 8.33 -0.96 8.66 -3 9 C-2.01 8.34 -1.02 7.68 0 7 C0.25015873 3.41642759 0.25015873 3.41642759 0 0 Z " fill="#2290CF" transform="translate(155,78)"/>
<path d="M0 0 C1.9451 2.91765 2.45276317 4.62537285 3 8 C2.01 7.67 1.02 7.34 0 7 C0 6.01 0 5.02 0 4 C-0.99 4 -1.98 4 -3 4 C-3 3.34 -3 2.68 -3 2 C-2.01 2 -1.02 2 0 2 C0 1.34 0 0.68 0 0 Z " fill="#52A8D8" transform="translate(134,79)"/>
<path d="M0 0 C2 2 2 2 2.125 5.125 C2.08375 6.07375 2.0425 7.0225 2 8 C1.71125 7.360625 1.4225 6.72125 1.125 6.0625 C0.17176549 3.84793921 0.17176549 3.84793921 -2 3 C-2 5.31 -2 7.62 -2 10 C-2.33 10 -2.66 10 -3 10 C-3 7.36 -3 4.72 -3 2 C-2.01 2 -1.02 2 0 2 C0 1.34 0 0.68 0 0 Z " fill="#AFD5EA" transform="translate(189,77)"/>
</svg>
