<?xml version="1.0" encoding="UTF-8"?>
<svg version="1.1" xmlns="http://www.w3.org/2000/svg" width="200" height="200">
<path d="M0 0 C66 0 132 0 200 0 C200 66 200 132 200 200 C134 200 68 200 0 200 C0 134 0 68 0 0 Z " fill="#FCFDFD" transform="translate(0,0)"/>
<path d="M0 0 C7.23444712 4.7105122 12.8145688 11.98471413 14.8125 20.4375 C15.70658137 23.1165321 15.70658137 23.1165321 17.83203125 23.78125 C19.40298911 24.23085974 20.97603653 24.67321382 22.55078125 25.109375 C28.36841072 27.22487663 32.60555098 31.75249638 35.5 37.125 C36.85083252 40.17029787 37.42080824 42.63353408 37 46 C38.19625 46.103125 39.3925 46.20625 40.625 46.3125 C46.10343946 47.02749915 50.09290225 48.71531134 53.75 52.9375 C56.93924538 57.27841733 58.26793526 59.81846006 58.125 65.25 C58.10695312 66.14203125 58.08890625 67.0340625 58.0703125 67.953125 C58.04710937 68.62859375 58.02390625 69.3040625 58 70 C55.25108861 68.70526387 52.88918096 67.27678332 50.48828125 65.41796875 C49.82135254 64.90451904 49.15442383 64.39106934 48.46728516 63.86206055 C47.75620605 63.30945557 47.04512695 62.75685059 46.3125 62.1875 C44.78519106 61.0103715 43.25784627 59.83328951 41.73046875 58.65625 C40.94849121 58.05167969 40.16651367 57.44710937 39.36083984 56.82421875 C21.62257697 40.65301814 21.62257697 40.65301814 0.71533203 32.5625 C-4.92025988 33.47051841 -9.68055865 36.68155964 -14.5625 39.5 C-16.8819621 40.79319313 -19.20227247 42.08486598 -21.5234375 43.375 C-22.6381543 44.00148437 -23.75287109 44.62796875 -24.90136719 45.2734375 C-57.72004661 63.56005119 -57.72004661 63.56005119 -73 62 C-75.83939275 60.99816673 -77.51460734 59.82600277 -80 58 C-80.825 57.46375 -81.65 56.9275 -82.5 56.375 C-84.63881602 52.9885413 -84.1839508 50.46800434 -83.59765625 46.5859375 C-81.61492857 38.00707655 -76.28532832 31.37754867 -68.87890625 26.64453125 C-63.36161791 23.75551637 -58.42043832 22.86240436 -52.1875 22.9375 C-51.21167969 22.94652344 -50.23585937 22.95554687 -49.23046875 22.96484375 C-48.12638672 22.98224609 -48.12638672 22.98224609 -47 23 C-46.95875 22.030625 -46.9175 21.06125 -46.875 20.0625 C-45.75554864 12.47169966 -40.01574016 6.22063003 -34.26171875 1.5078125 C-23.32068255 -5.78621164 -11.5424967 -5.83181617 0 0 Z " fill="#2FAFE5" transform="translate(113,34)"/>
<path d="M0 0 C8.71921989 4.85733708 16.47461858 11.18274751 24.31396484 17.31835938 C27.23293201 19.58937071 30.18974154 21.80571861 33.15234375 24.01953125 C34.06628906 24.70273438 34.98023438 25.3859375 35.921875 26.08984375 C37.48402804 27.25578027 39.06399013 28.39839108 40.6640625 29.51171875 C41.21707031 29.96804687 41.77007812 30.424375 42.33984375 30.89453125 C42.33984375 31.55453125 42.33984375 32.21453125 42.33984375 32.89453125 C36.92212685 36.26620087 32.42956985 36.32825775 26.25463867 36.29858398 C25.25384781 36.30544724 24.25305695 36.31231049 23.22193909 36.31938171 C19.92125158 36.33764741 16.62103961 36.33381167 13.3203125 36.328125 C11.01874131 36.3326876 8.71717149 36.3379934 6.41560364 36.3440094 C1.59301213 36.35294061 -3.22941379 36.35051796 -8.05200195 36.34057617 C-14.21891708 36.32909935 -20.38525851 36.34927878 -26.55209827 36.37849331 C-31.3057567 36.39688101 -36.0592784 36.39655746 -40.81296349 36.39085579 C-43.08585094 36.39070282 -45.35874781 36.39672671 -47.63160133 36.40914726 C-50.81701741 36.42409973 -54.00138333 36.41334736 -57.18676758 36.39624023 C-58.11746063 36.4059082 -59.04815369 36.41557617 -60.00704956 36.42553711 C-68.88672731 36.32616678 -77.1357723 33.02870085 -83.66015625 26.89453125 C-88.41035744 21.2796621 -90.51407776 16.11482573 -91.66015625 8.89453125 C-89.16974399 11.28915843 -86.94763785 13.77100148 -84.78515625 16.45703125 C-80.5579243 21.32095739 -76.63526507 23.08787598 -70.22265625 23.76953125 C-60.18903808 23.51954303 -51.60394538 18.04657365 -42.87890625 13.53808594 C-37.27390542 10.6760664 -31.58831337 7.98259327 -25.91015625 5.26953125 C-24.29415527 4.48884277 -24.29415527 4.48884277 -22.64550781 3.69238281 C-21.64487305 3.20995117 -20.64423828 2.72751953 -19.61328125 2.23046875 C-18.72801758 1.8029834 -17.84275391 1.37549805 -16.93066406 0.93505859 C-11.20081843 -1.6908126 -5.875848 -2.4417988 0 0 Z " fill="#043A53" transform="translate(120.66015625,84.10546875)"/>
<path d="M0 0 C3.25 1.875 3.25 1.875 5 5 C5.86350323 9.83244928 5.87931237 13.4655137 3.40625 17.78125 C0.17567924 20.76008797 -1.72738641 20.6094035 -6.0625 20.5 C-7.29097656 20.4896875 -8.51945312 20.479375 -9.78515625 20.46875 C-13 20 -13 20 -14.90625 18.87109375 C-16.5331954 16.087855 -16.43386758 13.76266034 -16.4375 10.5625 C-16.45683594 9.42941406 -16.47617187 8.29632813 -16.49609375 7.12890625 C-16 4 -16 4 -14.34375 1.625 C-9.9733448 -1.40514761 -5.08380406 -0.769853 0 0 Z " fill="#0A394E" transform="translate(56,132)"/>
<path d="M0 0 C2.371875 -0.103125 4.74375 -0.20625 7.1875 -0.3125 C7.92508545 -0.35802002 8.6626709 -0.40354004 9.42260742 -0.45043945 C13.29623593 -0.53152148 14.89039371 -0.08421321 17.984375 2.29296875 C20 5 20 5 20.0625 8.625 C18.88196706 12.37492817 18.31189616 13.0952307 15 15 C12.421875 15.29296875 12.421875 15.29296875 9.75 15.1875 C8.85796875 15.16042969 7.9659375 15.13335937 7.046875 15.10546875 C6.37140625 15.07066406 5.6959375 15.03585938 5 15 C5 16.65 5 18.3 5 20 C3.35 20 1.7 20 0 20 C0 13.4 0 6.8 0 0 Z " fill="#20495B" transform="translate(109,132)"/>
<path d="M0 0 C1.11761719 0.02707031 1.11761719 0.02707031 2.2578125 0.0546875 C4.08909701 0.10164351 5.91971649 0.17338348 7.75 0.25 C7.75 1.9 7.75 3.55 7.75 5.25 C6.75097656 5.29898438 5.75195312 5.34796875 4.72265625 5.3984375 C3.43230469 5.47320312 2.14195312 5.54796875 0.8125 5.625 C-0.47527344 5.69460937 -1.76304687 5.76421875 -3.08984375 5.8359375 C-4.13269531 5.97257813 -5.17554688 6.10921875 -6.25 6.25 C-6.58 6.91 -6.91 7.57 -7.25 8.25 C-2.96 8.25 1.33 8.25 5.75 8.25 C5.75 9.9 5.75 11.55 5.75 13.25 C1.46 13.25 -2.83 13.25 -7.25 13.25 C-6.92 13.91 -6.59 14.57 -6.25 15.25 C-2.97444392 15.72001033 -2.97444392 15.72001033 0.8125 15.875 C2.74802734 15.98714844 2.74802734 15.98714844 4.72265625 16.1015625 C6.22119141 16.17503906 6.22119141 16.17503906 7.75 16.25 C7.75 17.57 7.75 18.89 7.75 20.25 C4.97813012 20.35787818 2.21044463 20.43723327 -0.5625 20.5 C-1.34818359 20.53351563 -2.13386719 20.56703125 -2.94335938 20.6015625 C-8.69774547 20.6995095 -8.69774547 20.6995095 -11.265625 18.609375 C-12.48389156 15.68940276 -12.68354557 13.41354608 -12.6875 10.25 C-12.70683594 9.21875 -12.72617188 8.1875 -12.74609375 7.125 C-12.25 4.25 -12.25 4.25 -10.73828125 1.890625 C-7.23806109 -0.41721247 -4.03664832 -0.18542907 0 0 Z " fill="#133F52" transform="translate(143.25,131.75)"/>
<path d="M0 0 C12.05357143 -0.53571429 12.05357143 -0.53571429 15.625 1.8125 C18.4043248 4.37240442 19.86924521 6.01933904 20.375 9.8125 C19.90591849 13.79969282 18.46785476 15.87888957 16 19 C13.04335481 20.4783226 10.25770263 20.06032783 7 20 C7 18.68 7 17.36 7 16 C7.969375 15.690625 8.93875 15.38125 9.9375 15.0625 C12.84065792 14.30476658 12.84065792 14.30476658 14 13 C14.2500773 10.54190002 14.2500773 10.54190002 14 8 C11.63333333 5.23333333 11.63333333 5.23333333 5 5 C5 9.95 5 14.9 5 20 C3.35 20 1.7 20 0 20 C0 13.4 0 6.8 0 0 Z " fill="#123E50" transform="translate(86,132)"/>
<path d="M0 0 C0.96808594 -0.03738281 1.93617188 -0.07476562 2.93359375 -0.11328125 C5.5625 0.3125 5.5625 0.3125 7.3984375 1.84765625 C9.00324651 5.24575855 8.88532029 8.39150331 8.75 12.0625 C8.72969727 13.10857422 8.72969727 13.10857422 8.70898438 14.17578125 C8.6737945 15.88835541 8.61999155 17.60052941 8.5625 19.3125 C6.9125 19.3125 5.2625 19.3125 3.5625 19.3125 C3.5625 17.6625 3.5625 16.0125 3.5625 14.3125 C-0.0675 14.3125 -3.6975 14.3125 -7.4375 14.3125 C-7.4375 15.9625 -7.4375 17.6125 -7.4375 19.3125 C-8.7575 19.3125 -10.0775 19.3125 -11.4375 19.3125 C-11.4375 15.3525 -11.4375 11.3925 -11.4375 7.3125 C-10.1175 6.6525 -8.7975 5.9925 -7.4375 5.3125 C-7.4375 6.6325 -7.4375 7.9525 -7.4375 9.3125 C-3.8075 9.3125 -0.1775 9.3125 3.5625 9.3125 C3.2325 7.9925 2.9025 6.6725 2.5625 5.3125 C-0.7375 4.9825 -4.0375 4.6525 -7.4375 4.3125 C-7.4375 3.3225 -7.4375 2.3325 -7.4375 1.3125 C-4.86465862 0.02607931 -2.87221047 0.07247277 0 0 Z " fill="#07384D" transform="translate(165.4375,132.6875)"/>
<path d="M0 0 C1.45019531 0.05414063 1.45019531 0.05414063 2.9296875 0.109375 C4.01636719 0.17898437 4.01636719 0.17898437 5.125 0.25 C5.125 0.58 5.125 0.91 5.125 1.25 C4.49851563 1.29898438 3.87203125 1.34796875 3.2265625 1.3984375 C2.00066406 1.51058594 2.00066406 1.51058594 0.75 1.625 C-0.06210938 1.69460937 -0.87421875 1.76421875 -1.7109375 1.8359375 C-4.07834191 2.07892588 -4.07834191 2.07892588 -5.875 4.25 C-2.575 4.58 0.725 4.91 4.125 5.25 C4.62 7.725 4.62 7.725 5.125 10.25 C1.495 10.25 -2.135 10.25 -5.875 10.25 C-6.205 9.26 -6.535 8.27 -6.875 7.25 C-7.865 7.745 -7.865 7.745 -8.875 8.25 C-9.34398963 11.0659849 -9.34398963 11.0659849 -9.5 14.3125 C-9.57476562 15.41722656 -9.64953125 16.52195313 -9.7265625 17.66015625 C-9.77554688 18.51480469 -9.82453125 19.36945313 -9.875 20.25 C-8.555 20.58 -7.235 20.91 -5.875 21.25 C-7.525 21.25 -9.175 21.25 -10.875 21.25 C-10.875 20.59 -10.875 19.93 -10.875 19.25 C-11.535 19.25 -12.195 19.25 -12.875 19.25 C-12.875 18.26 -12.875 17.27 -12.875 16.25 C-17.495 16.25 -22.115 16.25 -26.875 16.25 C-27.205 15.26 -27.535 14.27 -27.875 13.25 C-23.585 13.25 -19.295 13.25 -14.875 13.25 C-14.875 11.6 -14.875 9.95 -14.875 8.25 C-19.165 8.25 -23.455 8.25 -27.875 8.25 C-27.545 7.26 -27.215 6.27 -26.875 5.25 C-25.86179688 5.22421875 -24.84859375 5.1984375 -23.8046875 5.171875 C-22.45308403 5.11555819 -21.10152319 5.05821167 -19.75 5 C-19.08484375 4.98582031 -18.4196875 4.97164062 -17.734375 4.95703125 C-10.75575365 4.61494197 -7.00102986 -0.34151365 0 0 Z " fill="#F2FDFE" transform="translate(163.875,131.75)"/>
<path d="M0 0 C1.65 0 3.3 0 5 0 C5.50130606 5.26371362 4.31168629 7.9090934 1 12 C0.34 12 -0.32 12 -1 12 C0.65 14.64 2.3 17.28 4 20 C1.3125 20.375 1.3125 20.375 -2 20 C-2.804375 19.030625 -3.60875 18.06125 -4.4375 17.0625 C-6.76970086 13.64887881 -6.76970086 13.64887881 -10.8125 13.125 C-11.864375 13.08375 -12.91625 13.0425 -14 13 C-14 15.31 -14 17.62 -14 20 C-15.32 20 -16.64 20 -18 20 C-18 13.73 -18 7.46 -18 1 C-16.68 1 -15.36 1 -14 1 C-14 3.64 -14 6.28 -14 9 C-12.20759337 8.88610125 -10.41605165 8.75852313 -8.625 8.625 C-7.62726563 8.55539063 -6.62953125 8.48578125 -5.6015625 8.4140625 C-2.84491121 8.23636036 -2.84491121 8.23636036 -1 6 C-0.60235737 4.01178687 -0.26224651 2.01055661 0 0 Z " fill="#08374A" transform="translate(195,132)"/>
<path d="M0 0 C1.65 0 3.3 0 5 0 C5.07347656 1.37285156 5.07347656 1.37285156 5.1484375 2.7734375 C5.22320312 3.96195313 5.29796875 5.15046875 5.375 6.375 C5.47941406 8.15003906 5.47941406 8.15003906 5.5859375 9.9609375 C5.70217346 13.10562319 5.70217346 13.10562319 8 15 C11.06991681 14.83557723 11.06991681 14.83557723 14 14 C15.28446919 11.43106162 15.32977144 9.23423663 15.5625 6.375 C15.64628906 5.37210938 15.73007813 4.36921875 15.81640625 3.3359375 C15.87699219 2.56507813 15.93757813 1.79421875 16 1 C17.32 1 18.64 1 20 1 C20.85846714 13.85793004 20.85846714 13.85793004 18.0625 17.8125 C14.47709817 20.37350131 12.47237825 20.75649188 8.15625 20.46875 C4.98752784 19.77989736 3.19482772 18.33200445 1 16 C-0.50156874 12.99686252 -0.09281204 10.20932478 -0.0625 6.875 C-0.05347656 5.59367188 -0.04445312 4.31234375 -0.03515625 2.9921875 C-0.02355469 2.00476563 -0.01195312 1.01734375 0 0 Z " fill="#0C3A4F" transform="translate(63,132)"/>
<path d="M0 0 C0.98484375 0.01804688 1.9696875 0.03609375 2.984375 0.0546875 C4.10585938 0.08949219 4.10585938 0.08949219 5.25 0.125 C5.25 1.775 5.25 3.425 5.25 5.125 C4.09371094 5.19847656 4.09371094 5.19847656 2.9140625 5.2734375 C1.91117188 5.34820312 0.90828125 5.42296875 -0.125 5.5 C-1.12273438 5.56960937 -2.12046875 5.63921875 -3.1484375 5.7109375 C-5.90508879 5.88863964 -5.90508879 5.88863964 -7.75 8.125 C-8.08333333 10.625 -8.08333333 10.625 -7.75 13.125 C-5.25494038 15.62005962 -4.07671112 15.48448376 -0.625 15.75 C0.28507813 15.82476562 1.19515625 15.89953125 2.1328125 15.9765625 C3.18082031 16.05003906 3.18082031 16.05003906 4.25 16.125 C4.25 17.445 4.25 18.765 4.25 20.125 C-6.69567589 20.91057482 -6.69567589 20.91057482 -10.9375 17.75 C-13.59536305 13.9006811 -14.21222298 11.8396744 -13.75 7.125 C-10.07647975 1.35232531 -6.70619767 -0.15967137 0 0 Z " fill="#113E4E" transform="translate(13.75,131.875)"/>
<path d="M0 0 C1.08667969 0.02707031 2.17335938 0.05414063 3.29296875 0.08203125 C4.54013672 0.13423828 4.54013672 0.13423828 5.8125 0.1875 C5.83975341 1.9165774 5.85900987 3.64578176 5.875 5.375 C5.88660156 6.33792969 5.89820313 7.30085937 5.91015625 8.29296875 C5.8125 11.1875 5.8125 11.1875 4.8125 16.1875 C1.1825 16.1875 -2.4475 16.1875 -6.1875 16.1875 C-6.1875 15.8575 -6.1875 15.5275 -6.1875 15.1875 C-2.8875 15.1875 0.4125 15.1875 3.8125 15.1875 C3.8125 13.8675 3.8125 12.5475 3.8125 11.1875 C3.12542969 11.22230469 2.43835937 11.25710937 1.73046875 11.29296875 C0.82941406 11.32003906 -0.07164063 11.34710938 -1 11.375 C-1.89332031 11.40980469 -2.78664063 11.44460937 -3.70703125 11.48046875 C-6.1875 11.1875 -6.1875 11.1875 -7.98828125 9.83203125 C-9.69481102 7.49180639 -9.61158618 6.0147412 -9.1875 3.1875 C-6.68860986 -0.42773281 -4.1728356 -0.1346076 0 0 Z " fill="#E6EDEF" transform="translate(14.1875,136.8125)"/>
<path d="M0 0 C1.65 0 3.3 0 5 0 C5 5.28 5 10.56 5 16 C8.63 16 12.26 16 16 16 C16 17.32 16 18.64 16 20 C10.72 20 5.44 20 0 20 C0 13.4 0 6.8 0 0 Z " fill="#07374B" transform="translate(21,132)"/>
<path d="M0 0 C0.9075 0.00257813 1.815 0.00515625 2.75 0.0078125 C4.11125 0.00394531 4.11125 0.00394531 5.5 0 C7.75 0.1328125 7.75 0.1328125 8.75 1.1328125 C8.8479057 2.63019374 8.87974864 4.13224142 8.875 5.6328125 C8.87757812 6.4475 8.88015625 7.2621875 8.8828125 8.1015625 C8.75 10.1328125 8.75 10.1328125 7.75 11.1328125 C6.08570949 11.23105187 4.41718069 11.26254881 2.75 11.2578125 C1.38875 11.26167969 1.38875 11.26167969 0 11.265625 C-2.25 11.1328125 -2.25 11.1328125 -3.25 10.1328125 C-3.3479057 8.63543126 -3.37974864 7.13338358 -3.375 5.6328125 C-3.37757812 4.818125 -3.38015625 4.0034375 -3.3828125 3.1640625 C-3.19390748 0.27492696 -2.8942402 0.17084057 0 0 Z " fill="#E5EEF1" transform="translate(47.25,136.8671875)"/>
<path d="M0 0 C1.93681161 -0.08107583 3.8745934 -0.13922475 5.8125 -0.1875 C6.89144531 -0.22230469 7.97039062 -0.25710937 9.08203125 -0.29296875 C12 0 12 0 13.90234375 1.34765625 C15 3 15 3 14.75 5.625 C14 8 14 8 13 9 C11.33382885 9.04063832 9.66611905 9.042721 8 9 C8 6.69 8 4.38 8 2 C7.34 2 6.68 2 6 2 C6 4.31 6 6.62 6 9 C4.02 9 2.04 9 0 9 C0 6.03 0 3.06 0 0 Z " fill="#B2B7B8" transform="translate(146,160)"/>
<path d="M0 0 C1.21816406 0.03480469 1.21816406 0.03480469 2.4609375 0.0703125 C3.68683594 0.09738281 3.68683594 0.09738281 4.9375 0.125 C5.87722656 0.15980469 5.87722656 0.15980469 6.8359375 0.1953125 C6.8359375 1.1853125 6.8359375 2.1753125 6.8359375 3.1953125 C7.4959375 3.1953125 8.1559375 3.1953125 8.8359375 3.1953125 C8.8359375 2.2053125 8.8359375 1.2153125 8.8359375 0.1953125 C9.4959375 0.1953125 10.1559375 0.1953125 10.8359375 0.1953125 C10.8359375 3.1653125 10.8359375 6.1353125 10.8359375 9.1953125 C10.1759375 9.1953125 9.5159375 9.1953125 8.8359375 9.1953125 C8.8359375 7.8753125 8.8359375 6.5553125 8.8359375 5.1953125 C7.8459375 5.1953125 6.8559375 5.1953125 5.8359375 5.1953125 C5.8359375 6.5153125 5.8359375 7.8353125 5.8359375 9.1953125 C-0.21875 9.390625 -0.21875 9.390625 -2.1640625 9.1953125 C-4.1640625 7.1953125 -4.1640625 7.1953125 -4.4140625 4.6953125 C-4.08960287 1.45071617 -3.32727288 0.30029539 0 0 Z " fill="#C9CDCF" transform="translate(51.1640625,159.8046875)"/>
<path d="M0 0 C1.46373047 0.06767578 1.46373047 0.06767578 2.95703125 0.13671875 C3.69308594 0.19472656 4.42914063 0.25273437 5.1875 0.3125 C5.1875 0.6425 5.1875 0.9725 5.1875 1.3125 C4.56101563 1.36148438 3.93453125 1.41046875 3.2890625 1.4609375 C2.47179687 1.53570312 1.65453125 1.61046875 0.8125 1.6875 C0.00039062 1.75710937 -0.81171875 1.82671875 -1.6484375 1.8984375 C-4.01584191 2.14142588 -4.01584191 2.14142588 -5.8125 4.3125 C-2.5125 4.6425 0.7875 4.9725 4.1875 5.3125 C4.5175 6.9625 4.8475 8.6125 5.1875 10.3125 C1.5575 10.3125 -2.0725 10.3125 -5.8125 10.3125 C-6.1425 9.3225 -6.4725 8.3325 -6.8125 7.3125 C-7.8025 7.8075 -7.8025 7.8075 -8.8125 8.3125 C-9.28148963 11.1284849 -9.28148963 11.1284849 -9.4375 14.375 C-9.51226562 15.47972656 -9.58703125 16.58445313 -9.6640625 17.72265625 C-9.71304688 18.57730469 -9.76203125 19.43195313 -9.8125 20.3125 C-8.4925 20.6425 -7.1725 20.9725 -5.8125 21.3125 C-7.4625 21.3125 -9.1125 21.3125 -10.8125 21.3125 C-10.94809675 18.74821485 -11.04683188 16.19114784 -11.125 13.625 C-11.16689453 12.90376953 -11.20878906 12.18253906 -11.25195312 11.43945312 C-11.34499431 7.36424933 -11.11422539 5.73229184 -8.65625 2.3125 C-5.39645054 0.01989379 -3.92395102 -0.23638259 0 0 Z " fill="#476878" transform="translate(163.8125,131.6875)"/>
<path d="M0 0 C2.49041226 2.39462718 4.7125184 4.87647023 6.875 7.5625 C11.25025555 12.63258522 15.27962189 14.05414103 21.875 14.6875 C23.58256287 14.80361428 25.29076788 14.91180119 27 15 C27 15.33 27 15.66 27 16 C22.05 16.495 22.05 16.495 17 17 C17 17.66 17 18.32 17 19 C16.01 19 15.02 19 14 19 C14 18.34 14 17.68 14 17 C12.68 17 11.36 17 10 17 C9.67 17.66 9.34 18.32 9 19 C4.14001163 12.7755764 1.14158406 7.86424577 0 0 Z " fill="#1F495D" transform="translate(29,93)"/>
<path d="M0 0 C2.97 0 5.94 0 9 0 C10.625 3.3125 10.625 3.3125 12 7 C11.01 8.485 11.01 8.485 10 10 C7.6171875 10.29296875 7.6171875 10.29296875 4.875 10.1875 C3.96492188 10.16042969 3.05484375 10.13335937 2.1171875 10.10546875 C1.41851562 10.07066406 0.71984375 10.03585938 0 10 C0 11.65 0 13.3 0 15 C-0.33 15 -0.66 15 -1 15 C-1.33 12.03 -1.66 9.06 -2 6 C-1.01 6.495 -1.01 6.495 0 7 C0 7.66 0 8.32 0 9 C3.465 8.505 3.465 8.505 7 8 C7 7.34 7 6.68 7 6 C4.69 6 2.38 6 0 6 C0 4.02 0 2.04 0 0 Z " fill="#234E61" transform="translate(114,137)"/>
<path d="M0 0 C6.40818182 -0.36272727 6.40818182 -0.36272727 8.9375 1.1875 C10.38718434 3.66049093 10.42317323 5.17884512 10 8 C8.9375 9.8125 8.9375 9.8125 7 11 C3.3125 11.1875 3.3125 11.1875 0 11 C0 7.37 0 3.74 0 0 Z " fill="#F5FAFC" transform="translate(91,137)"/>
<path d="M0 0 C3.96 0 7.92 0 12 0 C12 0.33 12 0.66 12 1 C8.37 1 4.74 1 1 1 C1 1.99 1 2.98 1 4 C2.65 4 4.3 4 6 4 C5.67 9.28 5.34 14.56 5 20 C3.35 20 1.7 20 0 20 C0 13.4 0 6.8 0 0 Z " fill="#1E4A5C" transform="translate(86,132)"/>
<path d="M0 0 C1.65 0 3.3 0 5 0 C5.05607422 1.33804688 5.05607422 1.33804688 5.11328125 2.703125 C5.17902344 3.87359375 5.24476562 5.0440625 5.3125 6.25 C5.37050781 7.41015625 5.42851563 8.5703125 5.48828125 9.765625 C6.01711803 13.10819638 6.73772333 14.5497057 9 17 C7.35 17.66 5.7 18.32 4 19 C1.17820323 16.09488246 0.05880657 14.53455169 -0.390625 10.44921875 C-0.34421875 9.20785156 -0.2978125 7.96648437 -0.25 6.6875 C-0.21390625 5.43324219 -0.1778125 4.17898437 -0.140625 2.88671875 C-0.07101563 1.45779297 -0.07101563 1.45779297 0 0 Z " fill="#224A5D" transform="translate(63,132)"/>
<path d="M0 0 C3.3 0 6.6 0 10 0 C10.33 0.99 10.66 1.98 11 3 C10.67 3.33 10.34 3.66 10 4 C10.165 4.66 10.33 5.32 10.5 6 C10.665 6.66 10.83 7.32 11 8 C10 9 10 9 7.71484375 9.09765625 C6.34005859 9.08025391 6.34005859 9.08025391 4.9375 9.0625 C4.01839844 9.05347656 3.09929687 9.04445312 2.15234375 9.03515625 C1.44207031 9.02355469 0.73179688 9.01195312 0 9 C0 6.03 0 3.06 0 0 Z " fill="#C4C9CB" transform="translate(106,160)"/>
<path d="M0 0 C4.55555556 0.55555556 4.55555556 0.55555556 6 2 C6.33 1.34 6.66 0.68 7 0 C7.66 0 8.32 0 9 0 C9 2.31 9 4.62 9 7 C9.66 7 10.32 7 11 7 C11 7.66 11 8.32 11 9 C9.68 9 8.36 9 7 9 C6.67 8.34 6.34 7.68 6 7 C5.34 7.66 4.68 8.32 4 9 C-0.55555556 8.44444444 -0.55555556 8.44444444 -2 7 C-2.1875 4.5625 -2.1875 4.5625 -2 2 C-1.34 1.34 -0.68 0.68 0 0 Z " fill="#959A9C" transform="translate(73,160)"/>
<path d="M0 0 C1.50433594 0.01353516 1.50433594 0.01353516 3.0390625 0.02734375 C3.80992188 0.03894531 4.58078125 0.05054688 5.375 0.0625 C5.375 1.7125 5.375 3.3625 5.375 5.0625 C4.61574219 5.11148438 3.85648438 5.16046875 3.07421875 5.2109375 C1.58341797 5.32308594 1.58341797 5.32308594 0.0625 5.4375 C-1.41669922 5.54191406 -1.41669922 5.54191406 -2.92578125 5.6484375 C-5.84028433 5.90115472 -5.84028433 5.90115472 -8.625 8.0625 C-9.615 7.0725 -10.605 6.0825 -11.625 5.0625 C-7.56381029 0.8659373 -5.84464408 -0.06796098 0 0 Z " fill="#2E5667" transform="translate(13.625,131.9375)"/>
<path d="M0 0 C0 3.74006499 -0.82868685 4.15172128 -3.375 6.75 C-8.47580612 12.38664838 -9.30674357 17.48478262 -9 25 C-8.34 25.33 -7.68 25.66 -7 26 C-7 26.66 -7 27.32 -7 28 C-3.51783717 30.05137315 -0.22724343 30.56818592 3.75 31.125 C4.92046875 31.29257813 6.0909375 31.46015625 7.296875 31.6328125 C8.18890625 31.75398438 9.0809375 31.87515625 10 32 C10 32.33 10 32.66 10 33 C2.71034206 33.47455278 -2.02882561 33.38698527 -8 29 C-8.825 28.46375 -9.65 27.9275 -10.5 27.375 C-12.63787773 23.99002692 -12.18283628 21.47070108 -11.6015625 17.58984375 C-9.82814363 9.95493003 -5.74271886 5.16199448 0 0 Z " fill="#4AAED5" transform="translate(41,63)"/>
<path d="M0 0 C0.33 0 0.66 0 1 0 C1 4.95 1 9.9 1 15 C-0.65 15 -2.3 15 -4 15 C-4 13.35 -4 11.7 -4 10 C-7.63 10 -11.26 10 -15 10 C-15 9.67 -15 9.34 -15 9 C-11.7 8.67 -8.4 8.34 -5 8 C-5 7.34 -5 6.68 -5 6 C-4.34 6 -3.68 6 -3 6 C-2.87625 5.38125 -2.7525 4.7625 -2.625 4.125 C-2 2 -2 2 0 0 Z " fill="#2F596E" transform="translate(173,137)"/>
<path d="M0 0 C0.33 0 0.66 0 1 0 C1 1.65 1 3.3 1 5 C0.34 5 -0.32 5 -1 5 C-1 8.63 -1 12.26 -1 16 C-1.66 15.67 -2.32 15.34 -3 15 C-3 14.01 -3 13.02 -3 12 C-5.77217867 12.28171329 -8.54230241 12.57491392 -11.3125 12.875 C-12.09818359 12.95363281 -12.88386719 13.03226563 -13.69335938 13.11328125 C-14.45068359 13.19707031 -15.20800781 13.28085937 -15.98828125 13.3671875 C-16.68477783 13.44050293 -17.38127441 13.51381836 -18.09887695 13.58935547 C-20.31766048 13.94706216 -20.31766048 13.94706216 -23 16 C-25.1875 15.625 -25.1875 15.625 -27 15 C-25.77493102 14.34642722 -24.54470484 13.70251767 -23.3125 13.0625 C-22.62800781 12.70285156 -21.94351563 12.34320313 -21.23828125 11.97265625 C-16.91683706 10.09475118 -12.85694244 9.88124166 -8.1875 9.9375 C-6.72376953 9.95103516 -6.72376953 9.95103516 -5.23046875 9.96484375 C-4.12638672 9.98224609 -4.12638672 9.98224609 -3 10 C-2.814375 8.3603125 -2.814375 8.3603125 -2.625 6.6875 C-2 3 -2 3 0 0 Z " fill="#47AED8" transform="translate(69,47)"/>
<path d="M0 0 C1.65 0 3.3 0 5 0 C5.50130606 5.26371362 4.31168629 7.9090934 1 12 C0.34 12 -0.32 12 -1 12 C-1 12.66 -1 13.32 -1 14 C-1.99 13.67 -2.98 13.34 -4 13 C-3.25 8.25 -3.25 8.25 -1 6 C-0.60235737 4.01178687 -0.26224651 2.01055661 0 0 Z " fill="#1F4D60" transform="translate(195,132)"/>
<path d="M0 0 C2.31 0.66 4.62 1.32 7 2 C7 1.34 7 0.68 7 0 C11.29 0 15.58 0 20 0 C20.495 0.99 20.495 0.99 21 2 C20.41476563 1.88398437 19.82953125 1.76796875 19.2265625 1.6484375 C9.21745735 0.59642945 1.87707741 5.99942561 -6.29516602 11.08203125 C-8 12 -8 12 -10 12 C-10 11.01 -10 10.02 -10 9 C-10.66 8.67 -11.32 8.34 -12 8 C-8.94736336 7.01879536 -7.05263664 7.01879536 -4 8 C-4 7.34 -4 6.68 -4 6 C-2.68 6 -1.36 6 0 6 C0 4.68 0 3.36 0 2 C0 1.34 0 0.68 0 0 Z " fill="#45AED9" transform="translate(101,65)"/>
<path d="M0 0 C1.65 0 3.3 0 5 0 C5.33 5.28 5.66 10.56 6 16 C8.64 16.33 11.28 16.66 14 17 C14 17.66 14 18.32 14 19 C10.04 19 6.08 19 2 19 C2 18.01 2 17.02 2 16 C2.66 16 3.32 16 4 16 C3.67 15.01 3.34 14.02 3 13 C3.08573227 10.93412885 3.23833535 8.87053475 3.4375 6.8125 C3.53933594 5.72582031 3.64117188 4.63914063 3.74609375 3.51953125 C3.87177734 2.27236328 3.87177734 2.27236328 4 1 C3.01 1 2.02 1 1 1 C1 7.27 1 13.54 1 20 C0.67 20 0.34 20 0 20 C0 13.4 0 6.8 0 0 Z " fill="#1F4A5F" transform="translate(21,132)"/>
<path d="M0 0 C0.66 0 1.32 0 2 0 C2.66 2.31 3.32 4.62 4 7 C6.31 7.33 8.62 7.66 11 8 C11 8.66 11 9.32 11 10 C4.125 11 4.125 11 3 11 C3 12.98 3 14.96 3 17 C2.01 17 1.02 17 0 17 C0 11.39 0 5.78 0 0 Z " fill="#05384E" transform="translate(110,135)"/>
<path d="M0 0 C1.9375 0.6875 1.9375 0.6875 2.9375 2.6875 C1.2875 2.6875 -0.3625 2.6875 -2.0625 2.6875 C-2.0625 3.3475 -2.0625 4.0075 -2.0625 4.6875 C-1.7325 4.3575 -1.4025 4.0275 -1.0625 3.6875 C0.60367115 3.64686168 2.27138095 3.644779 3.9375 3.6875 C3.9375 2.3675 3.9375 1.0475 3.9375 -0.3125 C4.5975 -0.3125 5.2575 -0.3125 5.9375 -0.3125 C5.9375 2.6575 5.9375 5.6275 5.9375 8.6875 C4.9475 8.3575 3.9575 8.0275 2.9375 7.6875 C0.92874558 7.96321139 -1.07428687 8.28985737 -3.0625 8.6875 C-5.0625 5.6875 -5.0625 5.6875 -4.8125 3.0625 C-4.565 2.27875 -4.3175 1.495 -4.0625 0.6875 C-2.0625 -0.3125 -2.0625 -0.3125 0 0 Z " fill="#94999C" transform="translate(99.0625,160.3125)"/>
<path d="M0 0 C2.08218362 -0.10832169 4.16599129 -0.18573541 6.25 -0.25 C7.99023438 -0.31960937 7.99023438 -0.31960937 9.765625 -0.390625 C13.57666013 0.06964494 14.65511755 1.05148444 17 4 C13.65266403 5.82581962 12.28927242 6.06715253 8.5 5.1875 C7.345 4.795625 6.19 4.40375 5 4 C3.33753959 3.64628502 1.67225729 3.30404678 0 3 C0 2.01 0 1.02 0 0 Z " fill="#0B3647" transform="translate(87,133)"/>
<path d="M0 0 C1.875 0.6875 1.875 0.6875 2.875 1.6875 C3.0625 4.125 3.0625 4.125 2.875 6.6875 C2.215 7.3475 1.555 8.0075 0.875 8.6875 C-3.68055556 8.13194444 -3.68055556 8.13194444 -5.125 6.6875 C-5.375 4.25 -5.375 4.25 -5.125 1.6875 C-2.125 -0.3125 -2.125 -0.3125 0 0 Z " fill="#93989A" transform="translate(90.125,160.3125)"/>
<path d="M0 0 C1.65 0 3.3 0 5 0 C5.33 0.99 5.66 1.98 6 3 C6.61875 3.28875 7.2375 3.5775 7.875 3.875 C10.67920898 5.35958123 11.54723288 7.23974247 13 10 C10.3125 10.375 10.3125 10.375 7 10 C3.98001951 6.98001951 1.667533 3.94144164 0 0 Z " fill="#103E52" transform="translate(186,142)"/>
<path d="M0 0 C2.97 0 5.94 0 9 0 C9.33 1.65 9.66 3.3 10 5 C6.37 5 2.74 5 -1 5 C-0.67 3.35 -0.34 1.7 0 0 Z " fill="#E2F0F5" transform="translate(159,137)"/>
<path d="M0 0 C0.66 0.33 1.32 0.66 2 1 C1.67515625 1.87011719 1.67515625 1.87011719 1.34375 2.7578125 C-0.96570369 9.2103683 -0.96570369 9.2103683 -1 16 C0.37926773 18.34261608 0.37926773 18.34261608 2 20 C1.01 20.33 0.02 20.66 -1 21 C-1 22.65 -1 24.3 -1 26 C-1.66 26 -2.32 26 -3 26 C-4.25533636 16.11422618 -4.15108872 9.21022809 0 0 Z " fill="#D7F5FA" transform="translate(31,72)"/>
<path d="M0 0 C4.29 0 8.58 0 13 0 C13 1.32 13 2.64 13 4 C11.04196493 4.05389087 9.08351091 4.09274217 7.125 4.125 C6.03445312 4.14820313 4.94390625 4.17140625 3.8203125 4.1953125 C1 4 1 4 -1 2 C-0.67 1.34 -0.34 0.68 0 0 Z " fill="#0D3B51" transform="translate(138,148)"/>
<path d="M0 0 C0.33 0 0.66 0 1 0 C1 4.95 1 9.9 1 15 C-1.31 15 -3.62 15 -6 15 C-6 14.67 -6 14.34 -6 14 C-4.35 13.67 -2.7 13.34 -1 13 C-1.66 12.21625 -2.32 11.4325 -3 10.625 C-5 8 -5 8 -5 6 C-3.68799596 4.64567325 -2.35368596 3.31266518 -1 2 C-0.67 1.34 -0.34 0.68 0 0 Z " fill="#DEEAEE" transform="translate(199,138)"/>
<path d="M0 0 C3.3 0 6.6 0 10 0 C10 0.66 10 1.32 10 2 C9.01 2 8.02 2 7 2 C7 2.66 7 3.32 7 4 C7.99 4.33 8.98 4.66 10 5 C9.01 5 8.02 5 7 5 C7 5.66 7 6.32 7 7 C7.99 7 8.98 7 10 7 C10 7.66 10 8.32 10 9 C8.35 9 6.7 9 5 9 C5 6.69 5 4.38 5 2 C4.34 2 3.68 2 3 2 C3 4.31 3 6.62 3 9 C2.67 9 2.34 9 2 9 C2 6.69 2 4.38 2 2 C1.34 2 0.68 2 0 2 C0 1.34 0 0.68 0 0 Z " fill="#9EA3A6" transform="translate(36,160)"/>
<path d="M0 0 C4.29 0 8.58 0 13 0 C13 1.32 13 2.64 13 4 C9.04 4 5.08 4 1 4 C0.67 2.68 0.34 1.36 0 0 Z " fill="#083649" transform="translate(5,148)"/>
<path d="M0 0 C2.97 0 5.94 0 9 0 C9.33 1.32 9.66 2.64 10 4 C9 5 9 5 6.93359375 5.09765625 C6.10988281 5.08605469 5.28617187 5.07445312 4.4375 5.0625 C3.61121094 5.05347656 2.78492187 5.04445312 1.93359375 5.03515625 C1.29550781 5.02355469 0.65742187 5.01195312 0 5 C0 3.35 0 1.7 0 0 Z " fill="#E1EDF3" transform="translate(114,137)"/>
<path d="M0 0 C0.33 0 0.66 0 1 0 C1.33 2.64 1.66 5.28 2 8 C2.99 8.33 3.98 8.66 5 9 C6.6875 12.5625 6.6875 12.5625 8 16 C5.6875 16.25 5.6875 16.25 3 16 C0.62050396 13.66540011 0.03192396 12.32860393 -0.29296875 8.984375 C-0.25816406 7.91703125 -0.22335938 6.8496875 -0.1875 5.75 C-0.14689453 4.13351563 -0.14689453 4.13351563 -0.10546875 2.484375 C-0.07066406 1.66453125 -0.03585938 0.8446875 0 0 Z " fill="#234D5F" transform="translate(131,136)"/>
<path d="M0 0 C3 1 3 1 4 3 C4.33 2.01 4.66 1.02 5 0 C5.66 0 6.32 0 7 0 C7 2.97 7 5.94 7 9 C6.34 9 5.68 9 5 9 C4.34 8.01 3.68 7.02 3 6 C2.67 6.99 2.34 7.98 2 9 C1.34 9 0.68 9 0 9 C0 6.03 0 3.06 0 0 Z " fill="#9CA1A3" transform="translate(63,160)"/>
<path d="M0 0 C1.09570312 0.00902344 2.19140625 0.01804688 3.3203125 0.02734375 C4.16335937 0.03894531 5.00640625 0.05054688 5.875 0.0625 C5.875 0.3925 5.875 0.7225 5.875 1.0625 C3.235 1.3925 0.595 1.7225 -2.125 2.0625 C0.185 2.7225 2.495 3.3825 4.875 4.0625 C4.875 4.3925 4.875 4.7225 4.875 5.0625 C1.245 5.3925 -2.385 5.7225 -6.125 6.0625 C-6.455 5.0725 -6.785 4.0825 -7.125 3.0625 C-7.125 3.7225 -7.125 4.3825 -7.125 5.0625 C-8.115 5.3925 -9.105 5.7225 -10.125 6.0625 C-7.93514821 -0.03780141 -6.32070169 -0.06724151 0 0 Z " fill="#2B5264" transform="translate(50.125,131.9375)"/>
<path d="M0 0 C0.99 0.495 0.99 0.495 2 1 C2.33 1.99 2.66 2.98 3 4 C3.66 2.68 4.32 1.36 5 0 C7.31 0 9.62 0 12 0 C12 0.66 12 1.32 12 2 C11.34 2 10.68 2 10 2 C10 4.31 10 6.62 10 9 C9.67 9 9.34 9 9 9 C9 6.69 9 4.38 9 2 C8.01 2 7.02 2 6 2 C5.87625 2.78375 5.7525 3.5675 5.625 4.375 C5 7 5 7 3 9 C0 3.375 0 3.375 0 0 Z " fill="#989C9F" transform="translate(127,160)"/>
<path d="M0 0 C2.475 0.495 2.475 0.495 5 1 C5.6875 4.3125 5.6875 4.3125 6 8 C4.5625 9.9375 4.5625 9.9375 3 11 C1.38935371 7.34920174 0.55105909 3.9492568 0 0 Z " fill="#063B4F" transform="translate(123,134)"/>
<path d="M0 0 C1.98 0 3.96 0 6 0 C2.90951067 3.09048933 -0.97920432 4.42243897 -4.9375 6.1875 C-5.76185547 6.56841797 -6.58621094 6.94933594 -7.43554688 7.34179688 C-8.22896484 7.69693359 -9.02238281 8.05207031 -9.83984375 8.41796875 C-10.56550537 8.74563232 -11.29116699 9.0732959 -12.03881836 9.41088867 C-14 10 -14 10 -17 9 C-14.35261084 7.5393715 -13.10551666 7 -10 7 C-9.67 5.68 -9.34 4.36 -9 3 C-9 3.66 -9 4.32 -9 5 C-8.071875 4.505 -7.14375 4.01 -6.1875 3.5 C-3 2 -3 2 0 2 C0 1.34 0 0.68 0 0 Z " fill="#4AAED8" transform="translate(74,83)"/>
<path d="M0 0 C0 0.66 0 1.32 0 2 C-1.62808594 2.18175781 -1.62808594 2.18175781 -3.2890625 2.3671875 C-4.73441404 2.53612469 -6.17972442 2.70541425 -7.625 2.875 C-8.33785156 2.95363281 -9.05070312 3.03226563 -9.78515625 3.11328125 C-14.08202185 3.62575146 -17.921207 4.46884427 -22 6 C-21 3 -21 3 -19.35546875 2.05078125 C-12.83943527 -0.16819231 -6.84318823 -0.31263296 0 0 Z " fill="#D7F9FD" transform="translate(66,55)"/>
<path d="M0 0 C4.62 0 9.24 0 14 0 C13.01 1.485 13.01 1.485 12 3 C8.9609375 3.29296875 8.9609375 3.29296875 5.375 3.1875 C4.18648437 3.16042969 2.99796875 3.13335937 1.7734375 3.10546875 C0.85820312 3.07066406 -0.05703125 3.03585938 -1 3 C-0.67 2.01 -0.34 1.02 0 0 Z " fill="#E7F6FB" transform="translate(137,137)"/>
<path d="M0 0 C2.475 0.99 2.475 0.99 5 2 C5 4.31 5 6.62 5 9 C3.35 9 1.7 9 0 9 C0 6.03 0 3.06 0 0 Z " fill="#C9CED0" transform="translate(146,160)"/>
<path d="M0 0 C0 1.66666667 0 3.33333333 0 5 C-0.99 5.495 -0.99 5.495 -2 6 C-2.33 6.99 -2.66 7.98 -3 9 C-4.65 9 -6.3 9 -8 9 C-8.66 10.32 -9.32 11.64 -10 13 C-10.33 12.34 -10.66 11.68 -11 11 C-9.92173635 9.72486237 -8.83714481 8.45507431 -7.75 7.1875 C-7.14671875 6.47980469 -6.5434375 5.77210937 -5.921875 5.04296875 C-4.07629602 3.08110329 -2.20054668 1.54330375 0 0 Z " fill="#4CB0D9" transform="translate(81,34)"/>
<path d="M0 0 C5.28 0 10.56 0 16 0 C16 1.65 16 3.3 16 5 C12.37 4.34 8.74 3.68 5 3 C5 2.67 5 2.34 5 2 C3.35 1.67 1.7 1.34 0 1 C0 0.67 0 0.34 0 0 Z " fill="#2D576A" transform="translate(135,132)"/>
<path d="M0 0 C7.60376019 -0.59378604 14.17035104 0.45474819 21 4 C21.99 5.485 21.99 5.485 23 7 C20.69 6.34 18.38 5.68 16 5 C16 4.34 16 3.68 16 3 C14.2984375 3.0309375 14.2984375 3.0309375 12.5625 3.0625 C9 3 9 3 8 2 C6.65252916 1.76924918 5.29622435 1.58846937 3.9375 1.4375 C2.638125 1.293125 1.33875 1.14875 0 1 C0 0.67 0 0.34 0 0 Z " fill="#52B2D8" transform="translate(92,30)"/>
<path d="M0 0 C0.66 0.66 1.32 1.32 2 2 C1.7578125 4.3828125 1.7578125 4.3828125 1.125 7.125 C0.92132813 8.03507813 0.71765625 8.94515625 0.5078125 9.8828125 C0.34023438 10.58148438 0.17265625 11.28015625 0 12 C-0.99 12 -1.98 12 -3 12 C-3.36923077 4.61538462 -3.36923077 4.61538462 -1.5 1.5 C-1.005 1.005 -0.51 0.51 0 0 Z " fill="#05384E" transform="translate(43,134)"/>
<path d="M0 0 C0.99 0 1.98 0 3 0 C3 0.66 3 1.32 3 2 C3.99 2 4.98 2 6 2 C5.67 2.99 5.34 3.98 5 5 C4.01 4.67 3.02 4.34 2 4 C2.66 5.32 3.32 6.64 4 8 C0.4213696 6.34832443 -2.74820188 4.21713508 -6 2 C-4.68 1.67 -3.36 1.34 -2 1 C-2 1.66 -2 2.32 -2 3 C-1.34 3 -0.68 3 0 3 C0 2.01 0 1.02 0 0 Z " fill="#3DADDB" transform="translate(128,66)"/>
<path d="M0 0 C1.7492214 -0.08142927 3.49954542 -0.13938541 5.25 -0.1875 C6.22453125 -0.22230469 7.1990625 -0.25710937 8.203125 -0.29296875 C11 0 11 0 15 3 C10.38 3 5.76 3 1 3 C0.67 2.01 0.34 1.02 0 0 Z " fill="#CBE0E4" transform="translate(136,145)"/>
<path d="M0 0 C4.29 0 8.58 0 13 0 C13 0.99 13 1.98 13 3 C8.71 3 4.42 3 0 3 C0 2.01 0 1.02 0 0 Z " fill="#08384E" transform="translate(136,141)"/>
<path d="M0 0 C0 1.32 0 2.64 0 4 C-3.63 4 -7.26 4 -11 4 C-11 3.34 -11 2.68 -11 2 C-7.12315913 0.80712589 -4.08378077 0 0 0 Z " fill="#09384D" transform="translate(18,133)"/>
<path d="M0 0 C4.86456456 4.16962677 7.63358152 9.05877914 10 15 C10 15.99 10 16.98 10 18 C9.34 18 8.68 18 8 18 C7.89042969 17.36191406 7.78085938 16.72382812 7.66796875 16.06640625 C7.50941406 15.24011719 7.35085937 14.41382813 7.1875 13.5625 C6.96126953 12.32693359 6.96126953 12.32693359 6.73046875 11.06640625 C6.48941406 10.38449219 6.24835938 9.70257813 6 9 C5.01 8.67 4.02 8.34 3 8 C0 2.77777778 0 2.77777778 0 0 Z " fill="#4FB0D8" transform="translate(118,39)"/>
<path d="M0 0 C2.475 0.495 2.475 0.495 5 1 C4.67 2.65 4.34 4.3 4 6 C3.34 6 2.68 6 2 6 C2 6.99 2 7.98 2 9 C1.34 9 0.68 9 0 9 C0 6.03 0 3.06 0 0 Z " fill="#A0A7A9" transform="translate(121,160)"/>
<path d="M0 0 C0.66 0 1.32 0 2 0 C2.53532823 1.55759343 3.05265378 3.12138045 3.5625 4.6875 C3.85253906 5.55761719 4.14257812 6.42773438 4.44140625 7.32421875 C5.05141961 10.24631074 4.77703633 12.14400553 4 15 C3.01 15.33 2.02 15.66 1 16 C0.34 15.67 -0.32 15.34 -1 15 C-0.67 14.34 -0.34 13.68 0 13 C0.66 13.33 1.32 13.66 2 14 C1.85795259 12.41632253 1.71119847 10.83306682 1.5625 9.25 C1.48128906 8.36828125 1.40007812 7.4865625 1.31640625 6.578125 C1.03761535 4.30649548 0.61209423 2.20148177 0 0 Z " fill="#DBF9FD" transform="translate(169,90)"/>
<path d="M0 0 C2.97 0 5.94 0 9 0 C8.01 0.33 7.02 0.66 6 1 C6 3.31 6 5.62 6 8 C7.32 8.33 8.64 8.66 10 9 C8.35 9 6.7 9 5 9 C5 6.69 5 4.38 5 2 C4.34 2 3.68 2 3 2 C3 4.31 3 6.62 3 9 C2.67 9 2.34 9 2 9 C2 6.69 2 4.38 2 2 C1.34 2 0.68 2 0 2 C0 1.34 0 0.68 0 0 Z " fill="#A5AAAD" transform="translate(149,160)"/>
<path d="M0 0 C1.98 0.66 3.96 1.32 6 2 C6.33 1.34 6.66 0.68 7 0 C7 4.29 7 8.58 7 13 C6.34 13 5.68 13 5 13 C4.89042969 12.31292969 4.78085937 11.62585938 4.66796875 10.91796875 C4.50941406 10.01691406 4.35085937 9.11585938 4.1875 8.1875 C4.03667969 7.29417969 3.88585938 6.40085938 3.73046875 5.48046875 C2.94604607 2.81678744 2.11372201 1.74309678 0 0 Z " fill="#E0F2F7" transform="translate(56,132)"/>
<path d="M0 0 C2.31 0 4.62 0 7 0 C7.33 0.66 7.66 1.32 8 2 C5.69 2.33 3.38 2.66 1 3 C1 5.31 1 7.62 1 10 C2.98 10 4.96 10 7 10 C7 10.33 7 10.66 7 11 C4.69 11 2.38 11 0 11 C0 7.37 0 3.74 0 0 Z " fill="#D9EBEF" transform="translate(91,137)"/>
<path d="M0 0 C3.3 0 6.6 0 10 0 C10.33 1.32 10.66 2.64 11 4 C9.54054712 3.91291331 8.08234132 3.80473093 6.625 3.6875 C5.81289063 3.62949219 5.00078125 3.57148438 4.1640625 3.51171875 C2 3 2 3 0 0 Z " fill="#06394C" transform="translate(47,133)"/>
<path d="M0 0 C0.33 0.66 0.66 1.32 1 2 C0.34 2 -0.32 2 -1 2 C-1.2475 2.639375 -1.495 3.27875 -1.75 3.9375 C-3 6 -3 6 -4.9375 6.6875 C-5.618125 6.790625 -6.29875 6.89375 -7 7 C-7.99 7.33 -8.98 7.66 -10 8 C-10.66 7.34 -11.32 6.68 -12 6 C-8.04 4.02 -4.08 2.04 0 0 Z " fill="#204C60" transform="translate(87,93)"/>
<path d="M0 0 C1.98 0.495 1.98 0.495 4 1 C4 1.66 4 2.32 4 3 C3.67 3.33 3.34 3.66 3 4 C3.40929986 6.05396726 3.40929986 6.05396726 4 8 C2.68 8.33 1.36 8.66 0 9 C0 8.01 0 7.02 0 6 C0.66 6.33 1.32 6.66 2 7 C2 6.34 2 5.68 2 5 C1.01 4.67 0.02 4.34 -1 4 C-0.67 2.68 -0.34 1.36 0 0 Z " fill="#9BA0A2" transform="translate(113,160)"/>
<path d="M0 0 C0.66 0 1.32 0 2 0 C2 2.97 2 5.94 2 9 C1.34 9 0.68 9 0 9 C0 7.68 0 6.36 0 5 C-0.99 5 -1.98 5 -3 5 C-3.33 6.32 -3.66 7.64 -4 9 C-4 6.36 -4 3.72 -4 1 C-3.67 1.99 -3.34 2.98 -3 4 C-2.01 4 -1.02 4 0 4 C0 2.68 0 1.36 0 0 Z " fill="#94989B" transform="translate(60,160)"/>
<path d="M0 0 C2.95929119 2.75520215 5.03681826 5.46627288 7 9 C5.02 9.99 5.02 9.99 3 11 C2.49384702 9.73160474 1.99530901 8.46016898 1.5 7.1875 C1.2215625 6.47980469 0.943125 5.77210937 0.65625 5.04296875 C0 3 0 3 0 0 Z " fill="#2C515E" transform="translate(29,93)"/>
<path d="M0 0 C5.41342681 1.14514798 7.9342948 2.34012809 11 7 C9.02 7 7.04 7 5 7 C5 5.68 5 4.36 5 3 C3.35 2.67 1.7 2.34 0 2 C0 1.34 0 0.68 0 0 Z " fill="#46ADD8" transform="translate(156,81)"/>
<path d="M0 0 C2.24606427 1.77444972 2.95081002 2.58352485 3.29296875 5.48046875 C3.25816406 6.37378906 3.22335938 7.26710937 3.1875 8.1875 C3.16042969 9.08855469 3.13335937 9.98960937 3.10546875 10.91796875 C3.07066406 11.60503906 3.03585938 12.29210937 3 13 C2.67 13 2.34 13 2 13 C1.67 11.35 1.34 9.7 1 8 C0.34 8 -0.32 8 -1 8 C-1 6.68 -1 5.36 -1 4 C-1.66 3.67 -2.32 3.34 -3 3 C-2.01 3 -1.02 3 0 3 C0 2.01 0 1.02 0 0 Z " fill="#305B6B" transform="translate(58,134)"/>
<path d="M0 0 C1.35439668 2.70879335 1.06501451 5.00933268 1 8 C0.34 7.01 -0.32 6.02 -1 5 C-1.99 5.33 -2.98 5.66 -4 6 C-4.33 4.35 -4.66 2.7 -5 1 C-3 0 -3 0 0 0 Z " fill="#204A60" transform="translate(105,137)"/>
<path d="M0 0 C2 2 2 2 2.1953125 4.3828125 C2.17210937 5.28773437 2.14890625 6.19265625 2.125 7.125 C2.10695312 8.03507812 2.08890625 8.94515625 2.0703125 9.8828125 C2.04710937 10.58148438 2.02390625 11.28015625 2 12 C-1.32759923 10.44805246 -3.48580485 8.69378051 -6 6 C-1.25 7.875 -1.25 7.875 1 9 C0.67 6.03 0.34 3.06 0 0 Z " fill="#55ADD3" transform="translate(169,92)"/>
<path d="M0 0 C4.1088041 0.52529369 6.25519841 1.66807991 9.3125 4.4375 C10.00988281 5.05496094 10.70726562 5.67242187 11.42578125 6.30859375 C13 8 13 8 13 10 C11.68 9.34 10.36 8.68 9 8 C9 7.34 9 6.68 9 6 C8.34 6 7.68 6 7 6 C7 5.34 7 4.68 7 4 C4.69 3.34 2.38 2.68 0 2 C0 1.34 0 0.68 0 0 Z " fill="#50B0D7" transform="translate(133,59)"/>
<path d="M0 0 C0.66 0 1.32 0 2 0 C2 2.97 2 5.94 2 9 C1.34 9 0.68 9 0 9 C-0.33 7.68 -0.66 6.36 -1 5 C-2.32 4.67 -3.64 4.34 -5 4 C-3.35 4 -1.7 4 0 4 C0 2.68 0 1.36 0 0 Z " fill="#B1B7BA" transform="translate(103,160)"/>
<path d="M0 0 C0.99 0.33 1.98 0.66 3 1 C3.5625 2.9375 3.5625 2.9375 4 5 C4.66 5.66 5.32 6.32 6 7 C3.61435923 6.42415568 1.33317216 5.77772405 -1 5 C-1.6875 2.9375 -1.6875 2.9375 -2 1 C-1.34 0.67 -0.68 0.34 0 0 Z " fill="#0A3E50" transform="translate(35,102)"/>
<path d="M0 0 C0.66 0 1.32 0 2 0 C2 2.31 2 4.62 2 7 C2.66 7 3.32 7 4 7 C4 7.66 4 8.32 4 9 C2.68 9 1.36 9 0 9 C-0.84454356 5.62182575 -1.10844919 3.32534757 0 0 Z " fill="#A9AEB0" transform="translate(80,160)"/>
<path d="M0 0 C2.475 0.495 2.475 0.495 5 1 C4.67 2.32 4.34 3.64 4 5 C2.68 5 1.36 5 0 5 C0 3.35 0 1.7 0 0 Z " fill="#EFF3F4" transform="translate(87,162)"/>
<path d="M0 0 C2.475 0.495 2.475 0.495 5 1 C4.67 2.32 4.34 3.64 4 5 C2.68 5 1.36 5 0 5 C0 3.35 0 1.7 0 0 Z " fill="#EFF4F5" transform="translate(73,162)"/>
<path d="M0 0 C0.99 0 1.98 0 3 0 C3 2.31 3 4.62 3 7 C1.68 7 0.36 7 -1 7 C-0.67 4.69 -0.34 2.38 0 0 Z " fill="#08384F" transform="translate(196,133)"/>
<path d="M0 0 C0 0.66 0 1.32 0 2 C-3.47325181 3.1577506 -6.36067448 3.06866652 -10 3 C-7.29536552 -0.8183075 -4.37912428 -0.24787496 0 0 Z " fill="#083D54" transform="translate(16,149)"/>
<path d="M0 0 C0.33 0 0.66 0 1 0 C1 3.3 1 6.6 1 10 C0.01 10 -0.98 10 -2 10 C-3 8 -3 8 -2.44140625 6.0546875 C-2.15136719 5.33539063 -1.86132812 4.61609375 -1.5625 3.875 C-1.27503906 3.15054688 -0.98757812 2.42609375 -0.69140625 1.6796875 C-0.46324219 1.12539062 -0.23507813 0.57109375 0 0 Z " fill="#E8F5F7" transform="translate(85,138)"/>
<path d="M0 0 C0.99 0.66 1.98 1.32 3 2 C3.1875 5.125 3.1875 5.125 3 8 C2.01 8 1.02 8 0 8 C-0.66 6.68 -1.32 5.36 -2 4 C-1.34 3.34 -0.68 2.68 0 2 C0 1.34 0 0.68 0 0 Z " fill="#164457" transform="translate(170,133)"/>
<path d="M0 0 C1.21236328 0.02707031 1.21236328 0.02707031 2.44921875 0.0546875 C3.37154297 0.08949219 3.37154297 0.08949219 4.3125 0.125 C4.3125 0.455 4.3125 0.785 4.3125 1.125 C2.6625 1.125 1.0125 1.125 -0.6875 1.125 C-1.0175 2.115 -1.3475 3.105 -1.6875 4.125 C-3.6675 3.465 -5.6475 2.805 -7.6875 2.125 C-4.48369983 -0.01086678 -3.66810033 -0.10632175 0 0 Z " fill="#204A59" transform="translate(113.6875,82.875)"/>
<path d="M0 0 C1.5625 1.0625 1.5625 1.0625 3 3 C2.6875 6.6875 2.6875 6.6875 2 10 C1.01 10 0.02 10 -1 10 C-1 9.34 -1 8.68 -1 8 C-0.34 8 0.32 8 1 8 C0.67 5.36 0.34 2.72 0 0 Z " fill="#23495C" transform="translate(126,134)"/>
<path d="M0 0 C1.37478516 0.01740234 1.37478516 0.01740234 2.77734375 0.03515625 C3.69644531 0.04417969 4.61554687 0.05320313 5.5625 0.0625 C6.27277344 0.07410156 6.98304687 0.08570313 7.71484375 0.09765625 C7.71484375 0.42765625 7.71484375 0.75765625 7.71484375 1.09765625 C6.45671875 1.20078125 5.19859375 1.30390625 3.90234375 1.41015625 C0.57526958 1.79374781 0.57526958 1.79374781 -2.16015625 3.66015625 C-2.53140625 4.13453125 -2.90265625 4.60890625 -3.28515625 5.09765625 C-3.94515625 5.09765625 -4.60515625 5.09765625 -5.28515625 5.09765625 C-2.87806166 0.12299409 -2.87806166 0.12299409 0 0 Z " fill="#E1F2F9" transform="translate(10.28515625,136.90234375)"/>
<path d="M0 0 C2.64 0 5.28 0 8 0 C8 0.66 8 1.32 8 2 C5.36 2.33 2.72 2.66 0 3 C0 2.01 0 1.02 0 0 Z " fill="#033950" transform="translate(87,133)"/>
<path d="M0 0 C0.66 0.33 1.32 0.66 2 1 C0.375 3 0.375 3 -2 5 C-5.25 5.25 -5.25 5.25 -8 5 C-5.45378681 2.99940392 -3.01962385 1.20784954 0 0 Z " fill="#285060" transform="translate(97,88)"/>
<path d="M0 0 C-1 2 -2 4 -3 6 C-3.99 6 -4.98 6 -6 6 C-6 4.68 -6 3.36 -6 2 C-2.25 0 -2.25 0 0 0 Z " fill="#134155" transform="translate(106,85)"/>
<path d="M0 0 C0 0.66 0 1.32 0 2 C-1.96147874 3.38938077 -3.96166576 4.7260411 -6 6 C-6.99 5.34 -7.98 4.68 -9 4 C-2.25 0 -2.25 0 0 0 Z " fill="#D7F6FC" transform="translate(89,79)"/>
<path d="M0 0 C1.32 0 2.64 0 4 0 C4 1.65 4 3.3 4 5 C2.68 5 1.36 5 0 5 C0 3.35 0 1.7 0 0 Z " fill="#0B3A48" transform="translate(169,147)"/>
<path d="M0 0 C1 3 1 3 0.125 5.25 C-2 7 -2 7 -4.20703125 7.03125 C-6.49497502 6.7718296 -8.73945062 6.43599695 -11 6 C-11 5.67 -11 5.34 -11 5 C-10.37351562 4.89042969 -9.74703125 4.78085938 -9.1015625 4.66796875 C-7.87566406 4.43013672 -7.87566406 4.43013672 -6.625 4.1875 C-5.81289062 4.03667969 -5.00078125 3.88585937 -4.1640625 3.73046875 C-1.64179359 3.12455058 -1.64179359 3.12455058 0 0 Z " fill="#D4E4E9" transform="translate(104,147)"/>
<path d="M0 0 C2.475 0.99 2.475 0.99 5 2 C5 2.66 5 3.32 5 4 C3.35 4.33 1.7 4.66 0 5 C-0.5625 3.0625 -0.5625 3.0625 -1 1 C-0.67 0.67 -0.34 0.34 0 0 Z " fill="#143D4D" transform="translate(158,113)"/>
<path d="M0 0 C2.1519437 3.22791555 2.20086443 4.28400809 2 8 C1.01 8 0.02 8 -1 8 C-1.125 2.25 -1.125 2.25 0 0 Z " fill="#204F68" transform="translate(1,137)"/>
<path d="M0 0 C0.66 0 1.32 0 2 0 C2 3.3 2 6.6 2 10 C-1 6 -1 6 -0.6875 2.75 C-0.460625 1.8425 -0.23375 0.935 0 0 Z " fill="#ECFBFD" transform="translate(129,137)"/>
<path d="M0 0 C1.65 0.99 3.3 1.98 5 3 C3.68 3.99 2.36 4.98 1 6 C0.34 5.67 -0.32 5.34 -1 5 C-0.67 3.35 -0.34 1.7 0 0 Z " fill="#134252" transform="translate(99,133)"/>
<path d="M0 0 C0 0.99 0 1.98 0 3 C-1.65 3 -3.3 3 -5 3 C-5.66 4.32 -6.32 5.64 -7 7 C-7.33 6.34 -7.66 5.68 -8 5 C-5.81209839 1.71814759 -4.05191042 0 0 0 Z " fill="#41AFDE" transform="translate(78,40)"/>
<path d="M0 0 C0 1.98 0 3.96 0 6 C-0.99 6 -1.98 6 -3 6 C-3.33 4.68 -3.66 3.36 -4 2 C-1 0 -1 0 0 0 Z " fill="#0A384D" transform="translate(105,141)"/>
<path d="M0 0 C0.99 0 1.98 0 3 0 C3 1.98 3 3.96 3 6 C2.01 5.67 1.02 5.34 0 5 C0 3.35 0 1.7 0 0 Z " fill="#07374C" transform="translate(64,133)"/>
</svg>
