<svg width="176" height="32" viewBox="0 0 176 32" fill="none" xmlns="http://www.w3.org/2000/svg">
<g clip-path="url(#clip0_5_32739)">
<path d="M9.96 24.79L1.94 16.77L4.68 14.03L9.96 19.31L22.52 6.75C21.4 2.85 17.81 0 13.56 0H0V31.83H13.56C18.71 31.83 22.89 27.65 22.89 22.5V11.87L9.96 24.8V24.79Z" fill="#D75427"/>
<path d="M37.0898 5.54004H42.3898C45.3998 5.54004 47.7398 6.33004 49.4098 7.91004C51.0798 9.49004 51.9198 11.87 51.9198 15.03C51.9198 18.19 51.0898 20.59 49.4398 22.22C47.7898 23.85 45.5198 24.67 42.6298 24.67H37.0898V5.54004ZM42.1598 21.42C45.9098 21.42 47.7898 19.29 47.7898 15.03C47.7898 12.82 47.3098 11.23 46.3398 10.25C45.3698 9.27004 43.9798 8.78004 42.1598 8.78004H41.1098V21.41H42.1598V21.42Z" fill="#010101"/>
<path d="M64.8102 19.9H58.8002L57.5102 24.68H53.4102L59.5102 5.54004H64.2902L70.3602 24.68H66.1102L64.8202 19.9H64.8102ZM63.9902 16.79L63.4602 14.83C63.2302 13.97 62.8702 12.62 62.4002 10.79L61.8402 8.62004H61.7202C61.1302 11.14 60.6202 13.21 60.1702 14.83L59.6402 16.79H63.9802H63.9902Z" fill="#010101"/>
<path d="M74.83 8.91004H69.5V5.54004H84.21V8.91004H78.85V24.68H74.84V8.91004H74.83Z" fill="#010101"/>
<path d="M95.61 19.9H89.6L88.31 24.68H84.21L90.31 5.54004H95.09L101.16 24.68H96.91L95.62 19.9H95.61ZM94.79 16.79L94.26 14.83C94.03 13.97 93.67 12.62 93.2 10.79L92.64 8.62004H92.52C91.93 11.14 91.42 13.21 90.97 14.83L90.44 16.79H94.78H94.79Z" fill="#010101"/>
<path d="M103.91 5.54004H115.81V8.91004H107.93V13.69H114.67V17.06H107.93V24.68H103.92V5.54004H103.91Z" fill="#D75427"/>
<path d="M119.729 5.54004H123.739V21.31H131.419V24.68H119.729V5.54004Z" fill="#D75427"/>
<path d="M137.509 23.8302C136.209 23.0302 135.199 21.8702 134.479 20.3602C133.759 18.8502 133.399 17.0702 133.399 15.0402C133.399 13.0102 133.759 11.2302 134.479 9.7502C135.199 8.2802 136.209 7.1502 137.509 6.3702C138.809 5.5902 140.309 5.2002 142.009 5.2002C143.709 5.2002 145.209 5.5902 146.509 6.3702C147.809 7.1502 148.819 8.2802 149.529 9.7702C150.239 11.2502 150.599 13.0102 150.599 15.0502C150.599 17.0902 150.239 18.8602 149.529 20.3702C148.819 21.8802 147.809 23.0402 146.509 23.8402C145.209 24.6402 143.709 25.0402 142.009 25.0402C140.309 25.0402 138.809 24.6402 137.509 23.8402V23.8302ZM145.269 19.7802C146.079 18.6102 146.489 17.0302 146.489 15.0302C146.489 13.0302 146.079 11.5002 145.269 10.3702C144.459 9.2402 143.369 8.6702 141.999 8.6702C140.629 8.6702 139.519 9.2302 138.719 10.3602C137.919 11.4802 137.519 13.0402 137.519 15.0302C137.519 17.0202 137.929 18.6102 138.739 19.7802C139.549 20.9502 140.639 21.5402 142.009 21.5402C143.379 21.5402 144.469 20.9502 145.279 19.7802H145.269Z" fill="#D75427"/>
<path d="M152.91 5.54004H157.04L158.48 14.71L159.3 20.78H159.42L160.59 14.71L162.76 5.54004H166.19L168.33 14.71L169 18.11L169.53 20.78H169.65C170.02 17.91 170.29 15.89 170.47 14.71L171.91 5.54004H175.75L172.26 24.68H167.22L165.2 15.54C164.89 14.07 164.62 12.6 164.41 11.11H164.29L164.06 12.46C163.83 13.83 163.63 14.85 163.47 15.54L161.51 24.68H156.56L152.93 5.54004H152.91Z" fill="#D75427"/>
</g>
<defs>
<clipPath id="clip0_5_32739">
<rect width="175.74" height="31.83" fill="white"/>
</clipPath>
</defs>
</svg>
