<svg enable-background="new 0 0 1000 242" height="242" viewBox="0 0 1000 242" width="1000" xmlns="http://www.w3.org/2000/svg" xmlns:xlink="http://www.w3.org/1999/xlink">
 <circle cx="57.7" cy="57.9" fill="#f45b83" r="53.7">
 </circle>
 <path d="m228.9 210.8-50 28.9-50-28.9v-57.7l50-28.9 50 28.9z" fill="#7acb71">
 </path>
 <path d="m178.9 7.9 28.9 50 28.8 50h-57.7-57.7l28.9-50z" fill="#f8be08">
 </path>
 <path d="m16.9 141.2h81.6v81.6h-81.6z" fill="#3f4c77" transform="matrix(.7071 .7071 -.7071 .7071 145.574 12.4831)">
 </path>
 <g fill="#777">
  <path d="m453.9 240.7v-104.1h-135v104.1h-27v-236.6h27v106.8h135v-106.8h27v236.6z">
  </path>
  <path d="m711.5 240.7v-236.6h26v236.6z">
  </path>
  <path d="m814.7 18.6c0 10.5-7.4 18.2-17.2 18.2s-17.2-7.8-17.2-18.2c0-10.5 7.4-18.3 17.2-18.3s17.2 7.8 17.2 18.3z">
  </path>
  <path d="m784.5 62.6h26v178.1h-26z">
  </path>
  <path d="m966.5 62.6h29.1l-59.5 86.5 63.9 91.6h-30.8l-50.6-72.7-52.4 72.7h-29.7l64.9-91.6-60.5-86.5h30.4l47.3 67.6z">
  </path>
  <path d="m539.8 162c.9 9.1 3.1 17.2 6.7 24.3s8.1 13.1 13.7 18 12.2 8.6 19 11.2c6.9 2.6 14.5 3.8 22 3.8 12 0 23-2.2 31.6-6.7 8.6-4.4 16.4-10.3 23.5-17.7l16 14.3c-8.7 9.8-18.6 17.6-29.7 23.5s-25.6 8.8-42.1 8.8c-11.8 0-23.3-2.2-33.7-6.5s-19.9-10.4-27.7-18.3-13.9-17.4-18.5-28.5-6.8-23.3-6.8-36.7c0-12.4 2.1-24.2 6.2-35.2s9.8-20.6 17.2-28.7c7.3-8.1 16.4-14.5 26.5-19.2s21.5-7 33.5-7c12.7 0 24.4 2.4 34.4 7.2s18.8 11.3 25.7 19.5 12.1 17.9 15.7 29 5.3 23 5.3 35.7v3.8c0 1.4-.1 3.2-.3 5.2h-138.2zm112.6-21c-.7-7.7-2.3-15.1-5-22-2.7-7-6.3-13.1-10.8-18.4-4.6-5.3-10.5-9.5-17-12.6-6.6-3.1-14.4-4.6-22.9-4.6-7.3 0-14.6 1.4-21 4.3s-12.5 6.9-17.4 12.1-8.9 11.3-12.2 18.4c-3.2 7.1-5.3 14.7-6.2 22.9h112.5z">
  </path>
 </g>
</svg>