<?xml version="1.0" encoding="UTF-8"?>
<svg version="1.1" xmlns="http://www.w3.org/2000/svg" width="200" height="200">
<path d="M0 0 C66 0 132 0 200 0 C200 66 200 132 200 200 C134 200 68 200 0 200 C0 134 0 68 0 0 Z " fill="#244D45" transform="translate(0,0)"/>
<path d="M0 0 C1.05960938 0.00676758 1.05960938 0.00676758 2.140625 0.01367188 C3.88545275 0.02546125 5.630237 0.04339676 7.375 0.0625 C7.375 1.3825 7.375 2.7025 7.375 4.0625 C5.725 4.0625 4.075 4.0625 2.375 4.0625 C2.375 10.9925 2.375 17.9225 2.375 25.0625 C0.065 24.7325 -2.245 24.4025 -4.625 24.0625 C-4.625 24.7225 -4.625 25.3825 -4.625 26.0625 C-6.275 26.0625 -7.925 26.0625 -9.625 26.0625 C-10.285 23.4225 -10.945 20.7825 -11.625 18.0625 C-14.925 18.0625 -18.225 18.0625 -21.625 18.0625 C-22.285 20.3725 -22.945 22.6825 -23.625 25.0625 C-24.945 24.7325 -26.265 24.4025 -27.625 24.0625 C-24.655 16.8025 -21.685 9.5425 -18.625 2.0625 C-17.305 2.0625 -15.985 2.0625 -14.625 2.0625 C-13.965 3.3825 -13.305 4.7025 -12.625 6.0625 C-11.965 6.0625 -11.305 6.0625 -10.625 6.0625 C-10.50125 5.258125 -10.3775 4.45375 -10.25 3.625 C-9.940625 2.3565625 -9.940625 2.3565625 -9.625 1.0625 C-6.55966836 -0.47016582 -3.35745728 -0.04026471 0 0 Z " fill="#294F47" transform="translate(152.625,86.9375)"/>
<path d="M0 0 C3.33600367 2.05838525 4.8262176 3.7393264 7 7 C7.66100598 11.04257341 7.91928345 15.20172043 6.01953125 18.91796875 C2.83125067 22.89105685 0.08570352 24.72795172 -4.875 25.375 C-9.80094062 24.78388713 -12.74139198 22.51032962 -15.875 18.75 C-17.38684912 15.05436881 -17.58321819 11.93872009 -17 8 C-13.81886308 0.46572835 -7.62411059 -1.27299124 0 0 Z " fill="#294E47" transform="translate(69,88)"/>
<path d="M0 0 C1.18851563 0.00902344 2.37703125 0.01804687 3.6015625 0.02734375 C4.51679687 0.03894531 5.43203125 0.05054687 6.375 0.0625 C6.705 2.3725 7.035 4.6825 7.375 7.0625 C6.385 7.3925 5.395 7.7225 4.375 8.0625 C4.045 9.0525 3.715 10.0425 3.375 11.0625 C4.365 11.0625 5.355 11.0625 6.375 11.0625 C6.48324843 12.6651782 6.56070645 14.26995748 6.625 15.875 C6.67140625 16.76832031 6.7178125 17.66164063 6.765625 18.58203125 C6.375 21.0625 6.375 21.0625 4.66796875 22.85546875 C0.67904255 24.95526125 -3.24504024 24.82917043 -7.625 24.0625 C-12.2326255 20.60678088 -14.27819983 17.3600511 -15.125 11.75 C-14.45898123 6.83811156 -12.21355833 4.35356127 -8.625 1.0625 C-5.74084117 -0.37957941 -3.20778472 -0.03144887 0 0 Z " fill="#2B4F48" transform="translate(116.625,87.9375)"/>
<path d="M0 0 C11 0 11 0 14.1875 1.5625 C16.66760547 4.89781425 16.59059604 6.93965219 16 11 C14.625 12.9375 14.625 12.9375 13 14 C12.34 14 11.68 14 11 14 C12.98 17.3 14.96 20.6 17 24 C15.68 24 14.36 24 13 24 C11.69140625 22.28515625 11.69140625 22.28515625 10.5625 20.0625 C8.70138443 16.62119896 8.70138443 16.62119896 5.1875 15 C4.465625 15 3.74375 15 3 15 C3 17.97 3 20.94 3 24 C2.01 24 1.02 24 0 24 C0 16.08 0 8.16 0 0 Z " fill="#F1FAFA" transform="translate(33,88)"/>
<path d="M0 0 C0.99 0 1.98 0 3 0 C4.84060462 2.2787038 6.49278618 4.51740198 8.125 6.9375 C9.02294095 8.23862407 9.92135443 9.53942221 10.8203125 10.83984375 C11.53960937 11.88269531 12.25890625 12.92554687 13 14 C13.33 14.33 13.66 14.66 14 15 C14.33 10.05 14.66 5.1 15 0 C15.99 0 16.98 0 18 0 C18 7.92 18 15.84 18 24 C13.5 21.75 13.5 21.75 11.421875 18.7421875 C10.98359375 18.11699219 10.5453125 17.49179688 10.09375 16.84765625 C9.6503125 16.19667969 9.206875 15.54570313 8.75 14.875 C8.06164062 13.88693359 8.06164062 13.88693359 7.359375 12.87890625 C6.23178769 11.2579995 5.11483609 9.62970314 4 8 C3.67 13.28 3.34 18.56 3 24 C2.01 24 1.02 24 0 24 C0 16.08 0 8.16 0 0 Z " fill="#E2EDEC" transform="translate(80,88)"/>
<path d="M0 0 C3.33600367 2.05838525 4.8262176 3.7393264 7 7 C7.66100598 11.04257341 7.91928345 15.20172043 6.01953125 18.91796875 C2.83125067 22.89105685 0.08570352 24.72795172 -4.875 25.375 C-9.80094062 24.78388713 -12.74139198 22.51032962 -15.875 18.75 C-17.38684912 15.05436881 -17.58321819 11.93872009 -17 8 C-13.81886308 0.46572835 -7.62411059 -1.27299124 0 0 Z M-13.2109375 7.08203125 C-14.75242525 10.82891483 -14.397816 14.25356931 -13 18 C-9.72867299 21.27132701 -7.99427287 21.98285736 -3.375 22.0625 C0.74584134 20.7651981 1.97498002 19.80703755 4 16 C4.60345991 13.18195607 4.6410036 10.8136087 4 8 C2.00647547 5.00971321 0.59744505 3.42190585 -2.9375 2.48828125 C-7.5404029 2.09598839 -10.4257452 3.09371166 -13.2109375 7.08203125 Z " fill="#E0EEED" transform="translate(69,88)"/>
<path d="M0 0 C3 1 3 1 4.16674805 3.13305664 C4.52808838 4.04949951 4.88942871 4.96594238 5.26171875 5.91015625 C5.65810547 6.89951172 6.05449219 7.88886719 6.46289062 8.90820312 C6.86701172 9.94912109 7.27113281 10.99003906 7.6875 12.0625 C8.10322266 13.10728516 8.51894531 14.15207031 8.94726562 15.22851562 C9.97486752 17.81523764 10.99190295 20.40562794 12 23 C10.68 23.33 9.36 23.66 8 24 C7.34 21.69 6.68 19.38 6 17 C2.7 17 -0.6 17 -4 17 C-4.66 19.31 -5.32 21.62 -6 24 C-7.32 23.67 -8.64 23.34 -10 23 C-8.52491251 19.35250285 -7.04425171 15.70729442 -5.5625 12.0625 C-5.14162109 11.02158203 -4.72074219 9.98066406 -4.28710938 8.90820312 C-3.88427734 7.91884766 -3.48144531 6.92949219 -3.06640625 5.91015625 C-2.69459229 4.99371338 -2.32277832 4.07727051 -1.93969727 3.13305664 C-1 1 -1 1 0 0 Z " fill="#E7F1F0" transform="translate(135,88)"/>
<path d="M0 0 C0.78246094 -0.01417969 1.56492187 -0.02835937 2.37109375 -0.04296875 C4.5625 0.1875 4.5625 0.1875 7.5625 2.1875 C7.2325 3.1775 6.9025 4.1675 6.5625 5.1875 C5.5725 4.8575 4.5825 4.5275 3.5625 4.1875 C-0.83133127 3.69929653 -2.74215988 3.684488 -6.375 6.3125 C-8.62535503 9.0212336 -8.62535503 9.0212336 -9 12.1875 C-8.27200185 16.07015681 -7.49768871 17.64978253 -4.4375 20.1875 C-1.39207539 20.60159388 1.50959737 20.48104833 4.5625 20.1875 C4.8925 17.5475 5.2225 14.9075 5.5625 12.1875 C6.5525 12.1875 7.5425 12.1875 8.5625 12.1875 C8.67086453 13.62333001 8.74826167 15.0615202 8.8125 16.5 C8.85890625 17.30050781 8.9053125 18.10101563 8.953125 18.92578125 C8.5625 21.1875 8.5625 21.1875 6.85546875 22.94921875 C2.88001016 25.09610184 -1.0512515 24.95527121 -5.4375 24.1875 C-10.0451255 20.73178088 -12.09069983 17.4850511 -12.9375 11.875 C-12.27148123 6.96311156 -10.02605833 4.47856127 -6.4375 1.1875 C-4.0978331 0.01766655 -2.60358473 0.0213759 0 0 Z " fill="#E1EDEC" transform="translate(114.4375,87.8125)"/>
<path d="M0 0 C4.62 0 9.24 0 14 0 C14 0.99 14 1.98 14 3 C10.37 3 6.74 3 3 3 C3 5.31 3 7.62 3 10 C6.3 10 9.6 10 13 10 C13 10.99 13 11.98 13 13 C9.7 13 6.4 13 3 13 C3 15.64 3 18.28 3 21 C6.63 21 10.26 21 14 21 C14 21.99 14 22.98 14 24 C9.38 24 4.76 24 0 24 C0 16.08 0 8.16 0 0 Z " fill="#DFECEB" transform="translate(164,88)"/>
<path d="M0 0 C4.62 0 9.24 0 14 0 C14 0.99 14 1.98 14 3 C12.35 3 10.7 3 9 3 C9 9.93 9 16.86 9 24 C7.68 24 6.36 24 5 24 C5 17.07 5 10.14 5 3 C3.35 3 1.7 3 0 3 C0 2.01 0 1.02 0 0 Z " fill="#D0DDDC" transform="translate(146,88)"/>
<path d="M0 0 C2.9777759 2.49996659 3.94548483 5.04711071 5.1875 8.6875 C5.53167969 9.68136719 5.87585938 10.67523438 6.23046875 11.69921875 C6.48441406 12.45847656 6.73835938 13.21773437 7 14 C5.68 14 4.36 14 3 14 C2.34 11.69 1.68 9.38 1 7 C-2.3 7 -5.6 7 -9 7 C-9.66 9.31 -10.32 11.62 -11 14 C-12.32 13.67 -13.64 13.34 -15 13 C-14.21572648 11.35063087 -13.42234741 9.70558873 -12.625 8.0625 C-12.18414062 7.14597656 -11.74328125 6.22945313 -11.2890625 5.28515625 C-10 3 -10 3 -8 2 C-8 2.99 -8 3.98 -8 5 C-5.36 5 -2.72 5 0 5 C-0.2784375 4.0409375 -0.2784375 4.0409375 -0.5625 3.0625 C-0.706875 2.381875 -0.85125 1.70125 -1 1 C-0.67 0.67 -0.34 0.34 0 0 Z " fill="#EEF6F5" transform="translate(140,98)"/>
<path d="M0 0 C0.33 0.99 0.66 1.98 1 3 C0.01 4.485 0.01 4.485 -1 6 C-1.46706347 11.69817438 -1.00943022 14.98428297 2 20 C0.0625 19.625 0.0625 19.625 -2 19 C-2.33 18.34 -2.66 17.68 -3 17 C-3.66 17 -4.32 17 -5 17 C-5.33 17.99 -5.66 18.98 -6 20 C-10 14.25 -10 14.25 -10 12 C-9.34 11.62875 -8.68 11.2575 -8 10.875 C-5.81895526 9.22593105 -5.81895526 9.22593105 -5.734375 7.02734375 C-5.74856205 5.01632914 -5.86840952 3.00675484 -6 1 C-5.01 1.33 -4.02 1.66 -3 2 C-3 2.66 -3 3.32 -3 4 C-2.01 2.68 -1.02 1.36 0 0 Z " fill="#37554F" transform="translate(54,90)"/>
<path d="M0 0 C0.99 0 1.98 0 3 0 C4.38671875 1.75 4.38671875 1.75 5.6875 4 C6.12449219 4.7425 6.56148438 5.485 7.01171875 6.25 C7.33785156 6.8275 7.66398437 7.405 8 8 C7.34 8 6.68 8 6 8 C5.67 8.66 5.34 9.32 5 10 C4.67 9.34 4.34 8.68 4 8 C3.67 13.28 3.34 18.56 3 24 C2.01 24 1.02 24 0 24 C0 16.08 0 8.16 0 0 Z " fill="#EAF6F5" transform="translate(80,88)"/>
<path d="M0 0 C6.0546875 -0.1953125 6.0546875 -0.1953125 8 0 C10 2 10 2 10.25 4.5 C10 7 10 7 8 9 C5.31160615 9.26991906 2.70858064 9.08737357 0 9 C0 6.03 0 3.06 0 0 Z " fill="#294D45" transform="translate(36,91)"/>
<path d="M0 0 C3.3 0 6.6 0 10 0 C10 0.66 10 1.32 10 2 C7.69 2 5.38 2 3 2 C3 8.93 3 15.86 3 23 C2.01 23 1.02 23 0 23 C0 15.41 0 7.82 0 0 Z " fill="#EFFBFA" transform="translate(33,89)"/>
<path d="M0 0 C0.99 0 1.98 0 3 0 C3 7.92 3 15.84 3 24 C2.01 24 1.02 24 0 24 C0 16.08 0 8.16 0 0 Z " fill="#E7F4F2" transform="translate(25,88)"/>
<path d="M0 0 C0.99 0.33 1.98 0.66 3 1 C2.67 4.3 2.34 7.6 2 11 C5.96 11 9.92 11 14 11 C14 11.99 14 12.98 14 14 C9.38 14 4.76 14 0 14 C0 9.38 0 4.76 0 0 Z " fill="#ECF9F7" transform="translate(164,98)"/>
<path d="M0 0 C0.99 0 1.98 0 3 0 C3.61538462 8.15384615 3.61538462 8.15384615 1.5 11.0625 C-2.11901787 12.4196317 -5.14504636 12.19274768 -9 12 C-9 11.34 -9 10.68 -9 10 C-6.36 9.34 -3.72 8.68 -1 8 C-0.67 5.36 -0.34 2.72 0 0 Z " fill="#F0FBFB" transform="translate(120,100)"/>
<path d="M0 0 C5.42039575 -0.40652968 9.07015675 0.96006486 14 3 C12.71484375 4.5078125 12.71484375 4.5078125 11 6 C6.4814351 5.83568855 3.254211 5.254211 0 2 C0 1.34 0 0.68 0 0 Z " fill="#395953" transform="translate(56,104)"/>
<path d="M0 0 C1.05960938 0.00676758 1.05960938 0.00676758 2.140625 0.01367188 C3.88545275 0.02546125 5.630237 0.04339676 7.375 0.0625 C7.375 0.3925 7.375 0.7225 7.375 1.0625 C2.755 1.0625 -1.865 1.0625 -6.625 1.0625 C-6.625 2.0525 -6.625 3.0425 -6.625 4.0625 C-4.975 4.0625 -3.325 4.0625 -1.625 4.0625 C-1.955 5.3825 -2.285 6.7025 -2.625 8.0625 C-2.625 7.4025 -2.625 6.7425 -2.625 6.0625 C-4.935 6.3925 -7.245 6.7225 -9.625 7.0625 C-10.625 4.0625 -10.625 4.0625 -9.625 1.0625 C-6.55966836 -0.47016582 -3.35745728 -0.04026471 0 0 Z " fill="#395952" transform="translate(152.625,86.9375)"/>
<path d="M0 0 C0.66 0 1.32 0 2 0 C2.226875 0.598125 2.45375 1.19625 2.6875 1.8125 C4.36067582 4.60112637 6.17017853 5.45033586 9 7 C10.34631825 7.98244845 11.68441297 8.97676564 13 10 C9.16571972 10.36516955 7.21187268 10.11001082 3.75 8.3125 C0.92157031 5.93404776 -0.02552263 4.50811852 -1 1 C-0.67 0.67 -0.34 0.34 0 0 Z " fill="#DBE5E5" transform="translate(54,103)"/>
<path d="M0 0 C9.74644653 -0.614487 9.74644653 -0.614487 14.1875 1.5625 C16.60897216 4.81896256 16.38074127 7.0402908 16 11 C11.94611555 8.29741037 11.49652559 5.48957676 10 1 C6.7 1 3.4 1 0 1 C0 0.67 0 0.34 0 0 Z " fill="#DCEDEB" transform="translate(33,88)"/>
<path d="M0 0 C2 2 2 2 2.1953125 5.4765625 C2.18201493 6.85950968 2.15816232 8.24238654 2.125 9.625 C2.11597656 10.33140625 2.10695312 11.0378125 2.09765625 11.765625 C2.07407603 13.51056098 2.03820461 15.25532295 2 17 C1.01 17 0.02 17 -1 17 C-0.67 11.39 -0.34 5.78 0 0 Z " fill="#F9FEFE" transform="translate(34,95)"/>
<path d="M0 0 C0.33 0.99 0.66 1.98 1 3 C-4.04615385 7.92307692 -4.04615385 7.92307692 -8.875 8.3125 C-9.90625 8.209375 -10.9375 8.10625 -12 8 C-10.60307672 5.20615345 -8.56793257 4.91757157 -5.7890625 3.796875 C-3.59949046 2.8216071 -1.83069032 1.53777987 0 0 Z " fill="#EAF7F5" transform="translate(74,104)"/>
<path d="M0 0 C0.66 0.33 1.32 0.66 2 1 C2 5.29 2 9.58 2 14 C1.01 14 0.02 14 -1 14 C-0.67 9.38 -0.34 4.76 0 0 Z " fill="#F5FEFE" transform="translate(81,98)"/>
<path d="M0 0 C0.66 0 1.32 0 2 0 C1.67 2.64 1.34 5.28 1 8 C1.66 8 2.32 8 3 8 C3.33 7.34 3.66 6.68 4 6 C4 8.97 4 11.94 4 15 C3.34 13.68 2.68 12.36 2 11 C0.68 10.67 -0.64 10.34 -2 10 C-1.34 6.7 -0.68 3.4 0 0 Z " fill="#3D5B56" transform="translate(76,97)"/>
<path d="M0 0 C0.66 0 1.32 0 2 0 C3.25664978 2.90600261 4 4.79604584 4 8 C2.02 8 0.04 8 -2 8 C-1.34 5.36 -0.68 2.72 0 0 Z " fill="#3A5953" transform="translate(135,94)"/>
<path d="M0 0 C0.99 0.33 1.98 0.66 3 1 C3 4.96 3 8.92 3 13 C2.01 13.33 1.02 13.66 0 14 C0 9.38 0 4.76 0 0 Z " fill="#FAFDFE" transform="translate(164,98)"/>
<path d="M0 0 C2.66735273 2.48952921 4.55746343 4.63408134 6 8 C4.68 8 3.36 8 2 8 C0.02 4.535 0.02 4.535 -2 1 C-1.34 0.67 -0.68 0.34 0 0 Z " fill="#E4F2F1" transform="translate(44,104)"/>
<path d="M0 0 C1.0209375 0.2165625 1.0209375 0.2165625 2.0625 0.4375 C5.36273082 1.06945909 8.67144426 1.54313941 12 2 C12 2.33 12 2.66 12 3 C10.02 3 8.04 3 6 3 C6 3.66 6 4.32 6 5 C3.5625 4.1875 3.5625 4.1875 1 3 C0.67 2.01 0.34 1.02 0 0 Z " fill="#CFDFDD" transform="translate(105,107)"/>
<path d="M0 0 C6.0546875 -0.1953125 6.0546875 -0.1953125 8 0 C10 2 10 2 10.125 4.625 C10.08375 5.40875 10.0425 6.1925 10 7 C9.278125 6.195625 8.55625 5.39125 7.8125 4.5625 C4.97484311 1.97707928 3.72833853 1.31957187 0 1 C0 0.67 0 0.34 0 0 Z " fill="#38534E" transform="translate(36,91)"/>
<path d="M0 0 C1.09898702 3.29696105 0.87124444 4.40494903 0.0625 7.6875 C-0.13214844 8.49574219 -0.32679687 9.30398437 -0.52734375 10.13671875 C-0.68332031 10.75160156 -0.83929688 11.36648437 -1 12 C-2.32 11.67 -3.64 11.34 -5 11 C-4.01 11 -3.02 11 -2 11 C-2.04125 9.741875 -2.0825 8.48375 -2.125 7.1875 C-2.2390374 3.70935927 -2.05925681 3.08888522 0 0 Z " fill="#355851" transform="translate(85,101)"/>
<path d="M0 0 C0.99 0 1.98 0 3 0 C2.67 2.97 2.34 5.94 2 9 C1.34 8.67 0.68 8.34 0 8 C0 5.36 0 2.72 0 0 Z " fill="#F3FAFA" transform="translate(80,88)"/>
<path d="M0 0 C2.475 0.99 2.475 0.99 5 2 C4.67 2.99 4.34 3.98 4 5 C-0.455 4.01 -0.455 4.01 -5 3 C-5 2.67 -5 2.34 -5 2 C-3.35 2 -1.7 2 0 2 C0 1.34 0 0.68 0 0 Z " fill="#D7E7E6" transform="translate(117,88)"/>
<path d="M0 0 C0.763125 0.061875 1.52625 0.12375 2.3125 0.1875 C2.6425 1.1775 2.9725 2.1675 3.3125 3.1875 C0.3425 3.1875 -2.6275 3.1875 -5.6875 3.1875 C-2.6875 0.1875 -2.6875 0.1875 0 0 Z " fill="#EBF9F9" transform="translate(64.6875,87.8125)"/>
<path d="M0 0 C2 3 2 3 1.625 5.6875 C1.41875 6.450625 1.2125 7.21375 1 8 C-0.32 7.67 -1.64 7.34 -3 7 C-2.01 4.69 -1.02 2.38 0 0 Z " fill="#E3EEEC" transform="translate(128,104)"/>
<path d="M0 0 C0.99 0.33 1.98 0.66 3 1 C2.67 2.32 2.34 3.64 2 5 C5.465 4.505 5.465 4.505 9 4 C9 4.66 9 5.32 9 6 C6.36 6 3.72 6 1 6 C-0.0625 4.125 -0.0625 4.125 -1 2 C-0.67 1.34 -0.34 0.68 0 0 Z " fill="#BBC8C8" transform="translate(131,97)"/>
<path d="M0 0 C-0.33 0.99 -0.66 1.98 -1 3 C-3.31 3 -5.62 3 -8 3 C-7 1 -7 1 -5.125 0.375 C-3 0 -3 0 0 0 Z " fill="#F2FCFC" transform="translate(70,109)"/>
<path d="M0 0 C2.31 0 4.62 0 7 0 C7 0.66 7 1.32 7 2 C4.36 2.33 1.72 2.66 -1 3 C-0.67 2.01 -0.34 1.02 0 0 Z " fill="#F1FAFA" transform="translate(110,88)"/>
</svg>
