<?xml version="1.0" encoding="UTF-8"?>
<svg version="1.1" xmlns="http://www.w3.org/2000/svg" width="615" height="616">
<path d="M0 0 C202.95 0 405.9 0 615 0 C615 203.28 615 406.56 615 616 C412.05 616 209.1 616 0 616 C0 412.72 0 209.44 0 0 Z " fill="#FEFEFE" transform="translate(0,0)"/>
<path d="M0 0 C15.37133687 30.39939326 26.68927052 61.80196147 35.17529297 94.80371094 C35.9786915 97.91741535 36.80230704 101.02519902 37.62890625 104.1328125 C40.98977469 116.94196392 43.53005392 129.74517724 45.51904297 142.83496094 C46.03459124 146.22763493 46.56525075 149.61774492 47.09765625 153.0078125 C48.08600509 159.33551716 49.06918838 165.66354326 50 172 C50.11037598 172.72832031 50.22075195 173.45664063 50.33447266 174.20703125 C51.04729787 179.27046219 51 183.7567422 51 189 C-40.74 189 -132.48 189 -227 189 C-225.66422331 181.65322821 -224.23147541 175.02004926 -222 168 C-221.62746094 166.73542969 -221.25492187 165.47085938 -220.87109375 164.16796875 C-218.11298571 154.87090123 -214.66899188 146.60541925 -209.8125 138.1875 C-208.26389476 135.46409078 -207.14521109 132.90032387 -206 130 C-202.33476478 121.93079997 -197.75342207 114.46587666 -193 107 C-192.34773438 105.96230469 -191.69546875 104.92460937 -191.0234375 103.85546875 C-187.20740312 97.93377396 -183.13784177 92.64636201 -178.2734375 87.546875 C-176.45640523 85.51129932 -174.90602235 83.51552939 -173.3203125 81.30859375 C-169.52132994 76.17402201 -165.04115388 71.78656062 -160.5 67.3125 C-159.67113281 66.48427734 -158.84226562 65.65605469 -157.98828125 64.80273438 C-146.10049915 53 -146.10049915 53 -143 53 C-143 52.34 -143 51.68 -143 51 C-141.41796875 49.7734375 -141.41796875 49.7734375 -139.1875 48.375 C-135.75788094 46.1800438 -132.52717911 43.87183814 -129.3125 41.375 C-109.41015893 26.7911467 -84.92903384 15.97793181 -61.1784668 9.69873047 C-56.8163649 8.54396116 -56.8163649 8.54396116 -52.58984375 6.98046875 C-48.53186284 5.4441894 -44.32137161 4.78095741 -40.0625 4 C-39.12390137 3.82629883 -38.18530273 3.65259766 -37.21826172 3.47363281 C-34.48041174 2.97311008 -31.74083352 2.48389029 -29 2 C-27.95803467 1.8134082 -27.95803467 1.8134082 -26.89501953 1.62304688 C-17.85243737 0.03721204 -9.15014354 -0.23067589 0 0 Z " fill="#72BFEE" transform="translate(303,70)"/>
<path d="M0 0 C91.74 0 183.48 0 278 0 C275.40447786 38.93283208 267.48391144 76.78153094 256 114 C255.54439697 115.49926025 255.54439697 115.49926025 255.07958984 117.02880859 C236.14352431 178.85647569 236.14352431 178.85647569 226 189 C179.01561923 193.83313192 122.24204608 167.4582542 86.36328125 138.92578125 C85.58339844 138.29027344 84.80351562 137.65476562 84 137 C83.00355469 136.18917969 82.00710937 135.37835938 80.98046875 134.54296875 C70.31312887 125.74962101 60.57184302 116.37790351 52.03515625 105.47265625 C50.02776454 102.93283758 50.02776454 102.93283758 47.55078125 100.6640625 C44.49714055 97.47480835 42.38065952 94.08649477 40.125 90.3125 C37.28394762 85.6559201 34.42596217 81.06428935 31.25 76.625 C24.48048101 67.06246269 19.65656266 57.11263064 15.04931641 46.38232422 C14.32036681 44.72734746 13.56543228 43.0836709 12.79052734 41.44970703 C9.44960187 34.38409245 6.99570949 27.22994007 4.75 19.75 C4.399375 18.61820312 4.04875 17.48640625 3.6875 16.3203125 C1.99952949 10.77597859 0.82807587 5.79653112 0 0 Z " fill="#72BFEE" transform="translate(76,353)"/>
<path d="M0 0 C56.1 0 112.2 0 170 0 C168.87227035 10.14956684 168.87227035 10.14956684 167.8359375 13.69140625 C167.60438965 14.48305176 167.3728418 15.27469727 167.13427734 16.09033203 C166.88371582 16.90614746 166.6331543 17.72196289 166.375 18.5625 C166.11283691 19.4272998 165.85067383 20.29209961 165.58056641 21.18310547 C163.2169119 28.74374284 160.20832521 35.8651186 156.86621094 43.04003906 C155.8861621 45.2575791 155.02909625 47.50863808 154.1640625 49.7734375 C151.91069352 55.4580484 149.0353912 60.70006747 146 66 C145.43039551 66.99821777 144.86079102 67.99643555 144.27392578 69.02490234 C136.38196841 82.7032769 127.92533891 95.65574952 117.38378906 107.44384766 C116.38168773 108.57076966 115.39015986 109.70712328 114.40527344 110.84912109 C103.78386737 123.15440861 92.34630372 134.67211179 79 144 C78.42072754 144.40766602 77.84145508 144.81533203 77.24462891 145.23535156 C63.30413298 154.98808509 48.59347828 163.20569875 33 170 C31.79859375 170.52464844 30.5971875 171.04929687 29.359375 171.58984375 C20.48536598 175.29993476 11.49814178 178.02769728 2.19042969 180.4296875 C0.13411499 180.96508107 -1.91349454 181.52553054 -3.9609375 182.09375 C-18.54578563 185.9988209 -33.8523165 188.84676492 -49 188 C-46.45301752 179.75976258 -43.11739972 171.88325745 -39.80175781 163.93115234 C-38.50521986 160.80824882 -37.25035658 157.66968212 -36.01171875 154.5234375 C-35.2666309 152.66503306 -34.49430273 150.8174934 -33.70703125 148.9765625 C-28.52929535 136.62217924 -24.81312659 123.82836882 -21 111 C-20.61972656 109.74574219 -20.23945313 108.49148438 -19.84765625 107.19921875 C-19.05101351 104.50841257 -18.29043515 101.81175002 -17.56445312 99.10107422 C-17.13976912 97.52026517 -16.7074848 95.94149492 -16.27148438 94.36376953 C-12.11394385 79.19966141 -8.91928112 63.98618109 -6.25 48.5 C-6.03614151 47.28091446 -6.03614151 47.28091446 -5.81796265 46.03720093 C-3.15325817 30.72756822 -1.66095516 15.5022482 0 0 Z " fill="#2EA0E5" transform="translate(368,353)"/>
<path d="M0 0 C7.95821092 -0.20412379 15.47449962 0.24832218 23.3125 1.625 C24.33794922 1.8010376 25.36339844 1.9770752 26.41992188 2.15844727 C37.45197588 4.13460189 48.22825339 6.9293954 59 10 C59.763125 10.21269531 60.52625 10.42539063 61.3125 10.64453125 C71.34438945 13.46145673 80.70437089 17.30050791 90 22 C91.23339111 22.61584961 91.23339111 22.61584961 92.49169922 23.24414062 C103.57593131 28.801513 114.05336726 34.56002537 124 42 C125.02351563 42.73992187 126.04703125 43.47984375 127.1015625 44.2421875 C132.92532148 48.50311496 138.39835679 52.9916644 143.69921875 57.88671875 C145.77785234 59.79595605 147.90420746 61.61976644 150.0625 63.4375 C154.80523733 67.56703492 158.88007863 72.26170394 163 77 C163.51175781 77.57363281 164.02351562 78.14726562 164.55078125 78.73828125 C172.63001211 87.90991515 179.74547462 97.65692454 185.93310547 108.19433594 C187.09647746 110.16328314 188.28360546 112.11677388 189.47265625 114.0703125 C201.99967744 134.79136213 218 163.28717436 218 188 C161.9 188 105.8 188 48 188 C46.68 176.45 45.36 164.9 44 153 C40.10777704 127.33236753 35.3593989 101.78513831 27.59716797 76.97314453 C26.24753791 72.5137373 25.0669976 68.00240441 23.87451172 63.4987793 C21.01674704 52.97140543 16.83283243 42.85646248 12.90087891 32.69458008 C12.13048715 30.70169441 11.36401232 28.70733107 10.59765625 26.71289062 C7.59653237 18.93428902 4.43987396 11.24704253 1.09716797 3.60864258 C0 1 0 1 0 0 Z " fill="#2FA1E5" transform="translate(320,71)"/>
<path d="M0 0 C0.69738281 0.00451172 1.39476562 0.00902344 2.11328125 0.01367188 C3.82555803 0.0253998 5.53779033 0.04333347 7.25 0.0625 C22.62133687 30.46189326 33.93927052 61.86446147 42.42529297 94.86621094 C43.2286915 97.97991535 44.05230704 101.08769902 44.87890625 104.1953125 C48.24316933 117.01740179 50.77826196 129.82921422 52.76464844 142.93261719 C53.27495996 146.22345911 53.82571021 149.50583529 54.3828125 152.7890625 C54.75572206 155.04679021 55.1281301 157.30460082 55.5 159.5625 C55.67547363 160.57554199 55.85094727 161.58858398 56.03173828 162.63232422 C57.43393226 171.39497537 57.25 178.86670216 57.25 188.0625 C14.68 188.0625 -27.89 188.0625 -71.75 188.0625 C-71.75 179.45784537 -71.14821933 171.42432316 -70.0625 162.9375 C-69.97452148 162.23884827 -69.88654297 161.54019653 -69.79589844 160.82037354 C-67.65595321 143.98028934 -64.61808378 127.31649294 -59.64453125 111.0625 C-58.97233595 108.80815071 -58.37539089 106.53114811 -57.81640625 104.24609375 C-56.72067309 99.79656085 -55.33230287 95.46776254 -53.875 91.125 C-53.60961426 90.32940674 -53.34422852 89.53381348 -53.07080078 88.71411133 C-51.51073366 84.1062842 -49.78364444 79.68363812 -47.69140625 75.2890625 C-45.97838245 71.23751244 -44.81975207 67.0012969 -43.58203125 62.78515625 C-42.75 60.0625 -42.75 60.0625 -41.75 58.0625 C-41.09 58.0625 -40.43 58.0625 -39.75 58.0625 C-39.646875 57.19625 -39.54375 56.33 -39.4375 55.4375 C-38.71268891 51.87933648 -37.4219058 49.26698611 -35.75 46.0625 C-35.06363375 43.82724965 -35.06363375 43.82724965 -34.75 42.0625 C-34.09 42.0625 -33.43 42.0625 -32.75 42.0625 C-32.5025 40.89589844 -32.255 39.72929688 -32 38.52734375 C-30.88960145 34.108074 -29.0641571 30.52386792 -26.75 26.625 C-26.35917236 25.95267334 -25.96834473 25.28034668 -25.56567383 24.58764648 C-24.73321453 23.1578198 -23.89693876 21.73020924 -23.05712891 20.3046875 C-21.70110441 17.97862681 -20.38514169 15.63298944 -19.07421875 13.28125 C-18.19586265 11.72885526 -17.3169702 10.17676385 -16.4375 8.625 C-16.02951172 7.88515869 -15.62152344 7.14531738 -15.20117188 6.38305664 C-12.24227558 1.24203506 -12.24227558 1.24203506 -9.83813477 0.36523438 C-6.56546276 -0.10923228 -3.29789145 -0.0405223 0 0 Z " fill="#2EA0E5" transform="translate(295.75,69.9375)"/>
<path d="M0 0 C41.91 0 83.82 0 127 0 C127 13.70672832 126.75127835 25.66528321 124.3125 38.875 C124.03413028 40.44849662 123.75663776 42.02214866 123.47998047 43.59594727 C122.68494384 48.07010409 121.8510189 52.53618804 121 57 C120.78682129 58.12293457 120.57364258 59.24586914 120.35400391 60.40283203 C117.16010011 76.83662776 112.61448028 92.9177756 108 109 C107.78408203 109.77327637 107.56816406 110.54655273 107.34570312 111.34326172 C103.08566834 126.59827951 96.82785975 141.29091352 91 156 C90.44530029 157.40620605 90.44530029 157.40620605 89.87939453 158.84082031 C86.06108387 168.48566144 81.79642541 177.8007768 77 187 C74.72923158 187.02699725 72.45837179 187.04639453 70.1875 187.0625 C68.29064453 187.07990234 68.29064453 187.07990234 66.35546875 187.09765625 C63 187 63 187 60 186 C60 185.01 60 184.02 60 183 C59.34 183 58.68 183 58 183 C57.62875 182.195625 57.2575 181.39125 56.875 180.5625 C55.05834756 176.91197567 52.77941243 173.62088444 50.49609375 170.25 C45 161.9843342 45 161.9843342 45 159 C44.34 159 43.68 159 43 159 C42.72671875 158.30003906 42.4534375 157.60007812 42.171875 156.87890625 C38.64327032 148.21030076 34.47669428 139.82647099 30.1015625 131.55859375 C29 129 29 129 29 125 C28.34 125 27.68 125 27 125 C24.8443119 119.14572013 22.72184624 113.28747989 20.77734375 107.359375 C20.21685415 105.65819048 19.64514877 103.96068678 19.06640625 102.265625 C15.42563817 91.55581696 12.33783564 80.7208175 9.7109375 69.71875 C9.04460719 66.99113362 9.04460719 66.99113362 8.0390625 64.390625 C6.51792666 59.42691857 5.80542086 54.37197331 5 49.25 C3.59096129 40.41346522 3.59096129 40.41346522 1.9140625 31.625 C-0.22880863 21.14547954 0 10.69599417 0 0 Z " fill="#2EA0E5" transform="translate(225,355)"/>
<path d="M0 0 C5.754375 -0.061875 11.50875 -0.12375 17.4375 -0.1875 C19.23501709 -0.21481201 21.03253418 -0.24212402 22.88452148 -0.27026367 C40.77710646 -0.4333041 40.77710646 -0.4333041 47.33984375 4.90234375 C47.86707031 5.57394531 48.39429688 6.24554688 48.9375 6.9375 C49.48277344 7.60652344 50.02804687 8.27554687 50.58984375 8.96484375 C53.00179235 12.44580004 54.25253937 15.06161101 54.265625 19.3359375 C54.26949219 20.56183594 54.26949219 20.56183594 54.2734375 21.8125 C54.26570313 22.658125 54.25796875 23.50375 54.25 24.375 C54.26160156 25.63183594 54.26160156 25.63183594 54.2734375 26.9140625 C54.24991349 34.39469796 52.78448622 40.05171984 48 46 C42.03946218 50.200379 37.42479356 51.14163796 30.2734375 51.09765625 C29.50878174 51.09664917 28.74412598 51.09564209 27.95629883 51.09460449 C25.09585066 51.08936661 22.23542385 51.07540537 19.375 51.0625 C9.784375 51.0315625 9.784375 51.0315625 0 51 C0 34.17 0 17.34 0 0 Z " fill="#444444" transform="translate(320,281)"/>
<path d="M0 0 C6.6 0 13.2 0 20 0 C25.34736767 11.09578792 29.71537595 22.46031926 34 34 C37.32105726 26.73900388 40.30431519 19.35737176 43.25 11.9375 C43.70890625 10.78572266 44.1678125 9.63394531 44.640625 8.44726562 C45.76200225 5.6321415 46.88122287 2.81615847 48 0 C54.6 0 61.2 0 68 0 C68 16.83 68 33.66 68 51 C63.71 51 59.42 51 55 51 C54.67 39.12 54.34 27.24 54 15 C52.60974609 18.64675781 52.60974609 18.64675781 51.19140625 22.3671875 C50.29476197 24.71705401 49.39776451 27.06678541 48.50073242 29.41650391 C47.87666452 31.05177942 47.25296488 32.68719553 46.62963867 34.32275391 C45.73452588 36.67126783 44.83809747 39.01927586 43.94140625 41.3671875 C43.6622084 42.10057343 43.38301056 42.83395935 43.09535217 43.58956909 C41.11387171 48.77225659 41.11387171 48.77225659 40 51 C36.04 51 32.08 51 28 51 C27.61328125 49.88882813 27.2265625 48.77765625 26.828125 47.6328125 C23.09182077 36.92737537 23.09182077 36.92737537 18.95703125 26.37109375 C17.57212904 22.93992786 16.29919723 19.46452595 15 16 C14.67 27.55 14.34 39.1 14 51 C9.38 51 4.76 51 0 51 C0 34.17 0 17.34 0 0 Z " fill="#424242" transform="translate(94,281)"/>
<path d="M0 0 C6.6 -0.103125 13.2 -0.20625 20 -0.3125 C22.06765625 -0.35802002 24.1353125 -0.40354004 26.265625 -0.45043945 C27.92706689 -0.46505926 29.58852687 -0.47779639 31.25 -0.48828125 C32.51650391 -0.526651 32.51650391 -0.526651 33.80859375 -0.5657959 C39.90348092 -0.57022532 44.43086384 0.81671534 49 5 C51.52551247 9.28099137 51.55674607 13.13268964 51 18 C49.44728802 22.06662662 48.63720598 23.57519602 45 26 C45.9590625 27.175625 45.9590625 27.175625 46.9375 28.375 C50.08947192 32.38660062 50.20446253 34.79808844 50.5 39.875 C50.72923784 43.7966045 51.04451627 47.17806508 52 51 C47.05 51 42.1 51 37 51 C36.0769652 47.30786078 35.89653804 44.51850046 35.9375 40.75 C35.94652344 39.67234375 35.95554687 38.5946875 35.96484375 37.484375 C35.97644531 36.66453125 35.98804688 35.8446875 36 35 C33.27498092 34.09166031 31.37766029 33.81640015 28.55078125 33.68359375 C27.70322266 33.64169922 26.85566406 33.59980469 25.98242188 33.55664062 C24.66081055 33.49766602 24.66081055 33.49766602 23.3125 33.4375 C22.41982422 33.39431641 21.52714844 33.35113281 20.60742188 33.30664062 C18.40512656 33.2006478 16.20258338 33.09982779 14 33 C14 38.94 14 44.88 14 51 C9.38 51 4.76 51 0 51 C0 34.17 0 17.34 0 0 Z " fill="#434343" transform="translate(232,281)"/>
<path d="M0 0 C16 0 16 0 20.1875 3.8125 C21.10354179 5.23996423 22.01419853 6.67192519 22.87011719 8.13623047 C24.78088553 11.28808992 26.92707942 14.27823547 29.03051758 17.3034668 C31.24753216 20.50278378 33.42220905 23.72966558 35.59301758 26.96044922 C37.00816755 29.01183961 38.50470514 31.00627352 40 33 C40.33 22.11 40.66 11.22 41 0 C45.29 0 49.58 0 54 0 C54 16.83 54 33.66 54 51 C39 51 39 51 34.7890625 47.265625 C33.68279292 45.62742496 32.62895454 43.95282325 31.625 42.25 C30.47977422 40.50611128 29.33394036 38.76262174 28.1875 37.01953125 C27.38119141 35.7348999 27.38119141 35.7348999 26.55859375 34.42431641 C24.42971599 31.11295109 22.05606409 28.02978988 19.625 24.9375 C16 20.23818182 16 20.23818182 16 18 C15.34 18 14.68 18 14 18 C14 28.89 14 39.78 14 51 C9.38 51 4.76 51 0 51 C0 34.17 0 17.34 0 0 Z " fill="#464646" transform="translate(466,281)"/>
<path d="M0 0 C1.48831242 0.00667405 2.97660807 0.01863442 4.46484375 0.03515625 C5.22345703 0.03966797 5.98207031 0.04417969 6.76367188 0.04882812 C8.64326246 0.06064945 10.52281274 0.07858547 12.40234375 0.09765625 C16.28010524 7.4819042 19.65056784 14.9592868 22.6796875 22.7265625 C24.00744802 26.12617762 25.38631568 29.50239547 26.78125 32.875 C27.19334717 33.87225098 27.60544434 34.86950195 28.0300293 35.89697266 C28.85335327 37.88590679 29.67899048 39.87388514 30.50708008 41.86083984 C30.88243896 42.77043457 31.25779785 43.6800293 31.64453125 44.6171875 C31.98339355 45.43292236 32.32225586 46.24865723 32.67138672 47.08911133 C33.40234375 49.09765625 33.40234375 49.09765625 33.40234375 51.09765625 C28.45234375 51.09765625 23.50234375 51.09765625 18.40234375 51.09765625 C17.41234375 46.14765625 17.41234375 46.14765625 16.40234375 41.09765625 C8.81234375 41.09765625 1.22234375 41.09765625 -6.59765625 41.09765625 C-7.58765625 44.39765625 -8.57765625 47.69765625 -9.59765625 51.09765625 C-14.54765625 51.09765625 -19.49765625 51.09765625 -24.59765625 51.09765625 C-22.09558534 43.13416849 -18.94270594 35.4779359 -15.72265625 27.78515625 C-15.20023131 26.53071949 -14.67809438 25.27616275 -14.15625 24.02148438 C-13.1344411 21.5657848 -12.10954104 19.1114519 -11.08300781 16.65771484 C-10.09439112 14.28821968 -9.11194224 11.91614151 -8.13574219 9.54150391 C-7.6874707 8.45272949 -7.23919922 7.36395508 -6.77734375 6.2421875 C-6.38015137 5.2725708 -5.98295898 4.3029541 -5.57373047 3.30395508 C-4.16203024 0.11297585 -4.16203024 0.11297585 0 0 Z " fill="#444444" transform="translate(427.59765625,280.90234375)"/>
<path d="M0 0 C15.18 0 30.36 0 46 0 C46 3.3 46 6.6 46 10 C35.11 10 24.22 10 13 10 C13 13.3 13 16.6 13 20 C23.23 20 33.46 20 44 20 C44 23.3 44 26.6 44 30 C33.77 30 23.54 30 13 30 C13 33.63 13 37.26 13 41 C23.89 41 34.78 41 46 41 C46 44.3 46 47.6 46 51 C30.82 51 15.64 51 0 51 C0 34.17 0 17.34 0 0 Z " fill="#444444" transform="translate(175,281)"/>
<path d="M0 0 C4.29 0 8.58 0 13 0 C13 16.83 13 33.66 13 51 C-2 51 -2 51 -6.08984375 47.78125 C-7.58398438 45.703125 -7.58398438 45.703125 -8.9375 43.5 C-9.44216797 42.80390625 -9.94683594 42.1078125 -10.46679688 41.390625 C-13.85030569 36.41893858 -14.62395847 32.96941707 -14 27 C-13 24.5 -13 24.5 -12 23 C-11.34 23.66 -10.68 24.32 -10 25 C-8.68 25.33 -7.36 25.66 -6 26 C-4.35 28.31 -2.7 30.62 -1 33 C-0.67 22.11 -0.34 11.22 0 0 Z " fill="#424242" transform="translate(507,281)"/>
<path d="M0 0 C6.6 0 13.2 0 20 0 C24 9 24 9 23.75 12.0625 C23.5025 12.701875 23.255 13.34125 23 14 C22.01 14 21.02 14 20 14 C17.82967524 15.43990623 17.82967524 15.43990623 16 17 C15.67 16.67 15.34 16.34 15 16 C14.67 27.55 14.34 39.1 14 51 C9.38 51 4.76 51 0 51 C0 34.17 0 17.34 0 0 Z " fill="#4A4A4A" transform="translate(94,281)"/>
<path d="M0 0 C2.84625 -0.0825 5.6925 -0.165 8.625 -0.25 C9.51010254 -0.28641602 10.39520508 -0.32283203 11.30712891 -0.36035156 C16.69977925 -0.43560349 19.74057179 0.39131776 24 4 C27.78939751 9.17884327 27.68891226 14.82734619 27 21 C25.61895428 24.6827886 24.10691008 27.54036285 21 30 C18.23434618 30.92188461 16.61716298 31.11785222 13.76953125 31.09765625 C13.04612549 31.09515869 12.32271973 31.09266113 11.57739258 31.09008789 C10.66497803 31.08098389 9.75256348 31.07187988 8.8125 31.0625 C5.904375 31.041875 2.99625 31.02125 0 31 C0 20.77 0 10.54 0 0 Z " fill="#FCFCFC" transform="translate(334,291)"/>
<path d="M0 0 C4.29 0 8.58 0 13 0 C13 16.83 13 33.66 13 51 C8.71 51 4.42 51 0 51 C0 34.17 0 17.34 0 0 Z " fill="#3F3F3F" transform="translate(384,281)"/>
<path d="M0 0 C4.29 0 8.58 0 13 0 C13 16.83 13 33.66 13 51 C8.71 51 4.42 51 0 51 C0 34.17 0 17.34 0 0 Z " fill="#404040" transform="translate(294,281)"/>
<path d="M0 0 C56.1 0 112.2 0 170 0 C169 9 169 9 167 12 C167.33 9.03 167.66 6.06 168 3 C146.3908397 2.95333318 124.78168768 2.9180373 103.17248726 2.89637566 C93.13955122 2.88605162 83.10664644 2.87196982 73.07373047 2.84912109 C64.33170262 2.82922165 55.58969741 2.81629177 46.84764755 2.81182301 C42.21639764 2.80920977 37.58521251 2.80304427 32.95398331 2.78853989 C28.5989163 2.77501034 24.24394101 2.77076793 19.88885498 2.77378464 C18.28680804 2.77323239 16.68475817 2.76922747 15.08272934 2.76158905 C12.9025422 2.75170001 10.72270552 2.75400871 8.54251099 2.75949097 C7.32021349 2.75764738 6.09791599 2.75580379 4.83857918 2.75390434 C1.8661418 2.70493189 1.8661418 2.70493189 0 5 C0 3.35 0 1.7 0 0 Z " fill="#5EC0EA" transform="translate(368,353)"/>
<path d="M0 0 C48.84 0 97.68 0 148 0 C148 0.66 148 1.32 148 2 C99.82 2 51.64 2 2 2 C2 3.65 2 5.3 2 7 C1.34 6.34 0.68 5.68 0 5 C0 3.35 0 1.7 0 0 Z " fill="#94D5F2" transform="translate(76,353)"/>
<path d="M0 0 C3.43734063 -0.08703823 6.87439837 -0.14040272 10.3125 -0.1875 C11.28896484 -0.21263672 12.26542969 -0.23777344 13.27148438 -0.26367188 C14.20927734 -0.27333984 15.14707031 -0.28300781 16.11328125 -0.29296875 C16.97735596 -0.3086792 17.84143066 -0.32438965 18.73168945 -0.34057617 C21 0 21 0 22.77807617 1.3347168 C24.70044463 3.95459197 24.44997388 5.85018283 24 9 C22.578125 11.171875 22.578125 11.171875 20 13 C16.75836493 13.51752751 13.58591887 13.42185698 10.3125 13.3125 C9.43271484 13.30283203 8.55292969 13.29316406 7.64648438 13.28320312 C1.16832442 13.16832442 1.16832442 13.16832442 0 12 C-0.07244053 9.98035801 -0.08377188 7.95832876 -0.0625 5.9375 C-0.05347656 4.83277344 -0.04445312 3.72804688 -0.03515625 2.58984375 C-0.02355469 1.73519531 -0.01195312 0.88054687 0 0 Z " fill="#F1F1F1" transform="translate(245,291)"/>
<path d="M0 0 C42.9 0 85.8 0 130 0 C129.67 4.95 129.34 9.9 129 15 C128.67 15 128.34 15 128 15 C128 10.71 128 6.42 128 2 C86.09 2 44.18 2 1 2 C1 4.64 1 7.28 1 10 C0.67 10 0.34 10 0 10 C0 6.7 0 3.4 0 0 Z " fill="#4EB9E8" transform="translate(224,353)"/>
<path d="M0 0 C3.72619658 4.62048376 7.36230673 9.30982806 11 14 C9.68 14.99 8.36 15.98 7 17 C6.67 16.01 6.34 15.02 6 14 C5.34 16.97 4.68 19.94 4 23 C-0.17383395 19.07168569 -3.89394426 14.83520017 -7 10 C-7 9.34 -7 8.68 -7 8 C-7.66 8 -8.32 8 -9 8 C-9 18.89 -9 29.78 -9 41 C-9.33 41 -9.66 41 -10 41 C-10 29.45 -10 17.9 -10 6 C-4.375 6 -4.375 6 -1 8 C-1 6.68 -1 5.36 -1 4 C-1.66 3.67 -2.32 3.34 -3 3 C-2.01 2.01 -1.02 1.02 0 0 Z " fill="#565656" transform="translate(489,291)"/>
<path d="M0 0 C0.66 0 1.32 0 2 0 C3.00399524 2.62353518 4.00334445 5.24867795 5 7.875 C5.28617187 8.62136719 5.57234375 9.36773437 5.8671875 10.13671875 C8 15.7734375 8 15.7734375 8 18 C3.38 18 -1.24 18 -6 18 C-4.2177429 11.88940424 -2.30678315 5.9317281 0 0 Z " fill="#F5F5F5" transform="translate(431,294)"/>
<path d="M0 0 C8.2425317 -0.26305952 15.91191011 0.39385449 24 2 C24 2.33 24 2.66 24 3 C17.4 2.67 10.8 2.34 4 2 C4.66 3.65 5.32 5.3 6 7 C6.125 10.3125 6.125 10.3125 6 13 C2.57068046 9.2440786 1.43570917 4.76533255 0 0 Z " fill="#42B7E8" transform="translate(320,71)"/>
<path d="M0 0 C1.41778293 2.83556587 0.86257622 4.9908706 0.5625 8.125 C0.46066406 9.22070312 0.35882813 10.31640625 0.25390625 11.4453125 C0.17011719 12.28835937 0.08632812 13.13140625 0 14 C-0.99 14.33 -1.98 14.66 -3 15 C-3.95652207 17.53059243 -3.95652207 17.53059243 -4.5625 20.5 C-4.98389416 22.3474682 -5.45181428 24.18610799 -6 26 C-6.66 26.33 -7.32 26.66 -8 27 C-6.97755177 20.65166473 -5.3508339 14.56564493 -3.4375 8.4375 C-3.10455933 7.36532227 -3.10455933 7.36532227 -2.76489258 6.27148438 C-1.13087905 1.13087905 -1.13087905 1.13087905 0 0 Z " fill="#85CEF1" transform="translate(87,221)"/>
<path d="M0 0 C0.66 0.99 1.32 1.98 2 3 C1.67 4.32 1.34 5.64 1 7 C6.61 7 12.22 7 18 7 C18 7.33 18 7.66 18 8 C10.96094956 8.93854006 4.09727428 9.10808032 -3 9 C-2.01 6.03 -1.02 3.06 0 0 Z " fill="#44B6E9" transform="translate(322,532)"/>
<path d="M0 0 C0.66 0.33 1.32 0.66 2 1 C1.38511719 1.67546875 0.77023438 2.3509375 0.13671875 3.046875 C-0.67152344 3.93890625 -1.47976562 4.8309375 -2.3125 5.75 C-3.11300781 6.63171875 -3.91351563 7.5134375 -4.73828125 8.421875 C-6.60916911 10.55449328 -8.34084286 12.70187943 -10 15 C-11.32 14.67 -12.64 14.34 -14 14 C-9.38 9.38 -4.76 4.76 0 0 Z " fill="#82D0F0" transform="translate(152,128)"/>
<path d="M0 0 C-1.65 3.3 -3.3 6.6 -5 10 C-5.66 10 -6.32 10 -7 10 C-7.125 3.375 -7.125 3.375 -6 0 C-3.42525708 -0.99667468 -2.51072708 -1.25536354 0 0 Z " fill="#36AAE6" transform="translate(521,405)"/>
<path d="M0 0 C-7.15360619 4.3449235 -12.65357353 5.71404789 -21 5 C-17.33169194 2.9212921 -13.42135615 1.88610216 -9.375 0.8125 C-8.694375 0.62236328 -8.01375 0.43222656 -7.3125 0.23632812 C-2.24262991 -1.12131495 -2.24262991 -1.12131495 0 0 Z " fill="#E7E6FB" transform="translate(381,531)"/>
<path d="M0 0 C0.33 0 0.66 0 1 0 C0.48462048 7.13393752 -0.44005901 14.01812817 -2 21 C-2.33 21 -2.66 21 -3 21 C-2.88618103 18.06167355 -2.75943449 15.1248935 -2.625 12.1875 C-2.5940625 11.35412109 -2.563125 10.52074219 -2.53125 9.66210938 C-2.49257813 8.85966797 -2.45390625 8.05722656 -2.4140625 7.23046875 C-2.3826416 6.49207764 -2.3512207 5.75368652 -2.31884766 4.99291992 C-2 3 -2 3 0 0 Z " fill="#F3EAFC" transform="translate(363,389)"/>
<path d="M0 0 C1.98 0 3.96 0 6 0 C5.34 1.65 4.68 3.3 4 5 C1.72942623 5.05398987 -0.54151288 5.09278742 -2.8125 5.125 C-4.70935547 5.15980469 -4.70935547 5.15980469 -6.64453125 5.1953125 C-10 5 -10 5 -13 3 C-7.72 3.33 -2.44 3.66 3 4 C3 3.34 3 2.68 3 2 C2.01 1.67 1.02 1.34 0 1 C0 0.67 0 0.34 0 0 Z " fill="#3BB3E8" transform="translate(298,537)"/>
<path d="M0 0 C0.66 0.33 1.32 0.66 2 1 C1.01 4.3 0.02 7.6 -1 11 C-1.66 10.67 -2.32 10.34 -3 10 C-3.59355614 7.35139573 -3.74209269 4.70802678 -4 2 C-2.68 2 -1.36 2 0 2 C0 1.34 0 0.68 0 0 Z " fill="#3CAEE7" transform="translate(327,475)"/>
<path d="M0 0 C0.66 0.66 1.32 1.32 2 2 C1.87890625 3.984375 1.87890625 3.984375 1 6 C-0.84765625 7.265625 -0.84765625 7.265625 -3.0625 8.25 C-3.79597656 8.58515625 -4.52945313 8.9203125 -5.28515625 9.265625 C-6.13400391 9.62914062 -6.13400391 9.62914062 -7 10 C-5.17495091 6.07699728 -2.81729174 3.26212728 0 0 Z " fill="#88CEF1" transform="translate(124,158)"/>
<path d="M0 0 C0.66 0 1.32 0 2 0 C2 0.66 2 1.32 2 2 C2.99 2 3.98 2 5 2 C7.27678571 10.03571429 7.27678571 10.03571429 6 14 C4.99515796 12.04414675 3.99626195 10.08523763 3 8.125 C2.1646875 6.48917969 2.1646875 6.48917969 1.3125 4.8203125 C0 2 0 2 0 0 Z " fill="#EAE6FB" transform="translate(303,70)"/>
<path d="M0 0 C0.99 0.33 1.98 0.66 3 1 C1.58192622 5.47238653 -0.11304374 9.71146306 -2 14 C-3.11742945 10.64771164 -2.84727505 9.26870332 -2.125 5.875 C-1.94195313 4.98554688 -1.75890625 4.09609375 -1.5703125 3.1796875 C-1 1 -1 1 0 0 Z " fill="#3EB1E8" transform="translate(524,389)"/>
<path d="M0 0 C0.66 0.33 1.32 0.66 2 1 C1.40539047 2.91965309 0.79890739 4.83563079 0.1875 6.75 C-0.14894531 7.81734375 -0.48539062 8.8846875 -0.83203125 9.984375 C-1.91882377 12.79040787 -3.06852537 14.71986376 -5 17 C-5.49648401 12.03515986 -4.30366882 9.06795732 -1.97265625 4.83203125 C-0.86217556 2.86245627 -0.86217556 2.86245627 0 0 Z " fill="#F0E9FB" transform="translate(333,501)"/>
<path d="M0 0 C0.33 0 0.66 0 1 0 C2.35060033 5.15683762 1.57501807 7.4221901 -1 12 C-1.69971973 13.98867713 -2.37664397 15.98608051 -3 18 C-4.66285211 14.67429578 -2.98079852 11.31639055 -2.0625 7.875 C-1.86720703 7.12089844 -1.67191406 6.36679687 -1.47070312 5.58984375 C-0.98676642 3.72491694 -0.49419231 1.86223541 0 0 Z " fill="#51BBEA" transform="translate(353,442)"/>
<path d="M0 0 C0.66 0.99 1.32 1.98 2 3 C1.71125 3.515625 1.4225 4.03125 1.125 4.5625 C-0.15549263 7.14213157 -0.15549263 7.14213157 -0.9375 10.6875 C-1.288125 11.780625 -1.63875 12.87375 -2 14 C-2.99 14.33 -3.98 14.66 -5 15 C-1.92482916 4.44191344 -1.92482916 4.44191344 0 0 Z " fill="#4EB8E9" transform="translate(336,497)"/>
<path d="M0 0 C2.80178062 3.2334275 3.74124175 6.10448769 4.6875 10.25 C4.93886719 11.32765625 5.19023437 12.4053125 5.44921875 13.515625 C5.72185547 14.74539062 5.72185547 14.74539062 6 16 C3 14 3 14 2.3046875 12.08984375 C2.09199219 11.02443359 2.09199219 11.02443359 1.875 9.9375 C1.45747638 7.19686221 1.45747638 7.19686221 0 5 C-0.04063832 3.33382885 -0.042721 1.66611905 0 0 Z " fill="#4DBCE9" transform="translate(324,122)"/>
<path d="M0 0 C0.33 0 0.66 0 1 0 C3.25433614 5.56069582 3.59961828 11.0785651 4 17 C1.81102745 13.71654118 1.18287663 11.20465719 0.3125 7.375 C0.04050781 6.20710937 -0.23148437 5.03921875 -0.51171875 3.8359375 C-0.75341797 2.43214844 -0.75341797 2.43214844 -1 1 C-0.67 0.67 -0.34 0.34 0 0 Z " fill="#4AB9EA" transform="translate(348,143)"/>
<path d="M0 0 C3.33773709 3.64116773 3.97864902 7.28607242 5 12 C4.01 11.67 3.02 11.34 2 11 C-1.32608696 3.97826087 -1.32608696 3.97826087 0 0 Z " fill="#49B8E9" transform="translate(312,90)"/>
<path d="M0 0 C2 3.75 2 3.75 2 6 C1.01 6.495 1.01 6.495 0 7 C-0.72159424 8.64363134 -1.39351421 10.31050386 -2 12 C-2.66 12 -3.32 12 -4 12 C-2.66666667 8 -1.33333333 4 0 0 Z " fill="#E1E3FA" transform="translate(317,506)"/>
<path d="M0 0 C1 2 1 2 0.375 4.9375 C-1.21652215 8.48225388 -2.55084038 9.36618755 -6 11 C-4.54955729 6.89041233 -2.48889248 3.56741255 0 0 Z " fill="#E2E6FA" transform="translate(508,428)"/>
<path d="M0 0 C0.33 0 0.66 0 1 0 C1 4.29 1 8.58 1 13 C0.01 13.33 -0.98 13.66 -2 14 C-1.43393721 9.30976546 -0.81462495 4.65499974 0 0 Z " fill="#DEE4FA" transform="translate(348,396)"/>
<path d="M0 0 C0 0.99 0 1.98 0 3 C-0.99 3.495 -0.99 3.495 -2 4 C-2.72159424 5.64363134 -3.39351421 7.31050386 -4 9 C-4.66 8.67 -5.32 8.34 -6 8 C-5.34 5.69 -4.68 3.38 -4 1 C-2.68 0.67 -1.36 0.34 0 0 Z " fill="#4C4C4C" transform="translate(139,298)"/>
<path d="M0 0 C0.66 0.99 1.32 1.98 2 3 C1.01 3.495 1.01 3.495 0 4 C-1.12224855 5.88013106 -1.12224855 5.88013106 -2.125 8.0625 C-2.47820312 8.79597656 -2.83140625 9.52945313 -3.1953125 10.28515625 C-3.59363281 11.13400391 -3.59363281 11.13400391 -4 12 C-4.66 12 -5.32 12 -6 12 C-4.43358249 7.69235185 -2.31663844 3.93828536 0 0 Z " fill="#87D0F1" transform="translate(108,180)"/>
<path d="M0 0 C2 1 2 1 3.125 3.1875 C4.08328236 6.26769331 4.14915816 8.79309948 4 12 C0.46209597 8.30827405 0.40884117 4.90609405 0 0 Z " fill="#36B2E6" transform="translate(322,72)"/>
<path d="M0 0 C1.15224028 0.92961422 2.29659176 1.8690125 3.4375 2.8125 C4.07558594 3.33457031 4.71367187 3.85664063 5.37109375 4.39453125 C7 6 7 6 8 9 C6.68 9 5.36 9 4 9 C4 7.68 4 6.36 4 5 C3.34 5 2.68 5 2 5 C2 4.34 2 3.68 2 3 C1.34 3 0.68 3 0 3 C0 2.01 0 1.02 0 0 Z " fill="#ECECFB" transform="translate(128,459)"/>
<path d="M0 0 C1.45047396 2.90094791 0.45356803 4.55972596 -0.4375 7.625 C-0.72496094 8.62789063 -1.01242187 9.63078125 -1.30859375 10.6640625 C-1.53675781 11.43492187 -1.76492188 12.20578125 -2 13 C-2.33 13 -2.66 13 -3 13 C-3.31563182 7.73946963 -2.66590937 4.55426184 0 0 Z " fill="#47B8EA" transform="translate(342,425)"/>
<path d="M0 0 C0.33 0 0.66 0 1 0 C1.2295711 3.36704285 1.33943529 5.41370268 -0.375 8.375 C-0.91125 8.91125 -1.4475 9.4475 -2 10 C-2.66 10 -3.32 10 -4 10 C-3.52449439 8.51965236 -3.04448784 7.04074979 -2.5625 5.5625 C-2.29566406 4.73878906 -2.02882813 3.91507813 -1.75390625 3.06640625 C-1 1 -1 1 0 0 Z " fill="#87D1F1" transform="translate(93,208)"/>
<path d="M0 0 C1.32667306 2.65334611 1.49020734 4.05875595 1 7 C-2 9.3125 -2 9.3125 -5 11 C-4.731875 10.484375 -4.46375 9.96875 -4.1875 9.4375 C-2.67650593 6.33598585 -1.34427274 3.17737194 0 0 Z " fill="#89D0F1" transform="translate(101,192)"/>
<path d="M0 0 C0.33 0.66 0.66 1.32 1 2 C0.38125 2.7425 -0.2375 3.485 -0.875 4.25 C-2.60437281 6.48801188 -3.86106661 8.43739987 -5 11 C-5.99 10.67 -6.98 10.34 -8 10 C-5.36 6.7 -2.72 3.4 0 0 Z " fill="#DEE4FB" transform="translate(493,450)"/>
<path d="M0 0 C0.66 0 1.32 0 2 0 C2.144375 0.598125 2.28875 1.19625 2.4375 1.8125 C2.8872439 3.56150404 3.42892341 5.28677023 4 7 C3.01 7.66 2.02 8.32 1 9 C0.34 8.67 -0.32 8.34 -1 8 C-0.67 5.36 -0.34 2.72 0 0 Z " fill="#3A3A3A" transform="translate(124,323)"/>
<path d="M0 0 C0.66 1.32 1.32 2.64 2 4 C1.1875 6.125 1.1875 6.125 0 8 C-0.33 8.66 -0.66 9.32 -1 10 C-1.66 10 -2.32 10 -3 10 C-2.01 6.7 -1.02 3.4 0 0 Z " fill="#43B2E8" transform="translate(340,486)"/>
<path d="M0 0 C2 3 2 3 2 5 C1.34 5 0.68 5 0 5 C-0.33 5.66 -0.66 6.32 -1 7 C-1.66 6.67 -2.32 6.34 -3 6 C-3 4.68 -3 3.36 -3 2 C-2.01 1.34 -1.02 0.68 0 0 Z " fill="#3D3D3D" transform="translate(124,310)"/>
<path d="M0 0 C2.64465038 3.1254959 3.84414715 6.08788267 5 10 C2 9 2 9 0.8125 7.25 C-0.10819096 4.70039426 -0.14948718 2.69076919 0 0 Z " fill="#4CBBE9" transform="translate(516,198)"/>
<path d="M0 0 C1.953125 0.61848958 3.90625 1.23697917 5.859375 1.85546875 C5.859375 2.18546875 5.859375 2.51546875 5.859375 2.85546875 C1.899375 2.85546875 -2.060625 2.85546875 -6.140625 2.85546875 C-2.140625 -0.14453125 -2.140625 -0.14453125 0 0 Z " fill="#CFE3F9" transform="translate(297.140625,67.14453125)"/>
<path d="M0 0 C2.3125 -0.3125 2.3125 -0.3125 5 0 C6.8125 2.5 6.8125 2.5 8 5 C4.62496331 3.8141763 2.35277269 2.72426311 0 0 Z " fill="#84CEF0" transform="translate(186,507)"/>
<path d="M0 0 C0.33 1.32 0.66 2.64 1 4 C-0.9375 6.25 -0.9375 6.25 -3 8 C-3.66 7.67 -4.32 7.34 -5 7 C-3.35 4.69 -1.7 2.38 0 0 Z " fill="#E7EAFA" transform="translate(501,439)"/>
<path d="M0 0 C0.66 0 1.32 0 2 0 C2 0.66 2 1.32 2 2 C2.99 2 3.98 2 5 2 C5.33 4.31 5.66 6.62 6 9 C3.59927045 6.11912454 1.52708963 3.43595166 0 0 Z " fill="#EBE8FB" transform="translate(495,163)"/>
<path d="M0 0 C1.98 1.65 3.96 3.3 6 5 C5.67 5.66 5.34 6.32 5 7 C3.68 6.67 2.36 6.34 1 6 C0.67 4.02 0.34 2.04 0 0 Z " fill="#52BBEA" transform="translate(481,147)"/>
<path d="M0 0 C1.31602523 0.61754259 2.62773556 1.24428742 3.9375 1.875 C4.66839844 2.22304687 5.39929688 2.57109375 6.15234375 2.9296875 C8 4 8 4 9 6 C6.69 5.34 4.38 4.68 2 4 C2 3.34 2 2.68 2 2 C1.34 2 0.68 2 0 2 C0 1.34 0 0.68 0 0 Z " fill="#37B4E8" transform="translate(426,102)"/>
</svg>
